<?xml version="1.0" encoding="us-ascii" standalone="no"?><svg xmlns="http://www.w3.org/2000/svg" xmlns:xlink="http://www.w3.org/1999/xlink" contentStyleType="text/css" height="1670px" preserveAspectRatio="none" style="width:1933px;height:1670px;background:#FFFFFF;" version="1.1" viewBox="0 0 1933 1670" width="1933px" zoomAndPan="magnify"><defs/><g><!--class users--><g id="elem_users"><rect codeLine="5" fill="#F1F1F1" height="188.875" id="users" rx="2.5" ry="2.5" style="stroke:#181818;stroke-width:0.5;" width="205" x="1383.88" y="7"/><ellipse cx="1464.63" cy="23" fill="#ADD1B2" rx="11" ry="11" style="stroke:#181818;stroke-width:1.0;"/><path d="M1467.3956,18.875 Q1467.5519,18.6563 1467.7394,18.5469 Q1467.9269,18.4375 1468.1456,18.4375 Q1468.5206,18.4375 1468.755,18.7031 Q1468.9894,18.9531 1468.9894,19.5625 L1468.9894,21.0156 Q1468.9894,21.625 1468.755,21.8906 Q1468.5206,22.1563 1468.1456,22.1563 Q1467.8019,22.1563 1467.5987,21.9531 Q1467.3956,21.7656 1467.2862,21.25 Q1467.2394,20.8906 1467.0519,20.7031 Q1466.7237,20.3281 1466.1144,20.1094 Q1465.505,19.8906 1464.88,19.8906 Q1464.1144,19.8906 1463.4737,20.2188 Q1462.8487,20.5469 1462.3487,21.2969 Q1461.8644,22.0469 1461.8644,23.0781 L1461.8644,24.1719 Q1461.8644,25.4063 1462.755,26.2344 Q1463.6456,27.0469 1465.2394,27.0469 Q1466.1769,27.0469 1466.8331,26.7969 Q1467.2237,26.6406 1467.6456,26.2031 Q1467.9112,25.9375 1468.0519,25.8594 Q1468.2081,25.7813 1468.4112,25.7813 Q1468.7394,25.7813 1468.9894,26.0469 Q1469.255,26.2969 1469.255,26.6406 Q1469.255,26.9844 1468.9112,27.3906 Q1468.4112,27.9688 1467.6144,28.2969 Q1466.5362,28.75 1465.2394,28.75 Q1463.7237,28.75 1462.5206,28.125 Q1461.5362,27.625 1460.8487,26.5625 Q1460.1612,25.4844 1460.1612,24.2031 L1460.1612,23.0469 Q1460.1612,21.7188 1460.7706,20.5781 Q1461.3956,19.4219 1462.4894,18.8125 Q1463.5831,18.1875 1464.8175,18.1875 Q1465.5519,18.1875 1466.1925,18.3594 Q1466.8487,18.5156 1467.3956,18.875 Z " fill="#000000"/><text fill="#000000" font-family="sans-serif" font-size="14" lengthAdjust="spacing" textLength="35" x="1485.13" y="28.7285">users</text><line style="stroke:#181818;stroke-width:0.5;" x1="1384.88" x2="1587.88" y1="39" y2="39"/><text fill="#000000" font-family="sans-serif" font-size="14" lengthAdjust="spacing" textLength="103" x="1389.88" y="57.5332">+id : bigint &#171;PK&#187;</text><line style="stroke:#181818;stroke-width:1.0;" x1="1384.88" x2="1587.88" y1="64.6094" y2="64.6094"/><text fill="#000000" font-family="sans-serif" font-size="14" lengthAdjust="spacing" textLength="157" x="1389.88" y="83.1426">username : varchar(100)</text><text fill="#000000" font-family="sans-serif" font-size="14" lengthAdjust="spacing" textLength="127" x="1389.88" y="100.752">email : varchar(150)</text><text fill="#000000" font-family="sans-serif" font-size="14" lengthAdjust="spacing" textLength="193" x="1389.88" y="118.3613">password_hash : varchar(255)</text><text fill="#000000" font-family="sans-serif" font-size="14" lengthAdjust="spacing" textLength="155" x="1389.88" y="135.9707">full_name : varchar(150)</text><text fill="#000000" font-family="sans-serif" font-size="14" lengthAdjust="spacing" textLength="123" x="1389.88" y="153.5801">locale : varchar(10)</text><text fill="#000000" font-family="sans-serif" font-size="14" lengthAdjust="spacing" textLength="134" x="1389.88" y="171.1895">created_at : datetime</text><text fill="#000000" font-family="sans-serif" font-size="14" lengthAdjust="spacing" textLength="138" x="1389.88" y="188.7988">updated_at : datetime</text></g><!--class wallets--><g id="elem_wallets"><rect codeLine="18" fill="#F1F1F1" height="188.875" id="wallets" rx="2.5" ry="2.5" style="stroke:#181818;stroke-width:0.5;" width="377" x="1549.88" y="581"/><ellipse cx="1713.13" cy="597" fill="#ADD1B2" rx="11" ry="11" style="stroke:#181818;stroke-width:1.0;"/><path d="M1715.8956,592.875 Q1716.0519,592.6563 1716.2394,592.5469 Q1716.4269,592.4375 1716.6456,592.4375 Q1717.0206,592.4375 1717.255,592.7031 Q1717.4894,592.9531 1717.4894,593.5625 L1717.4894,595.0156 Q1717.4894,595.625 1717.255,595.8906 Q1717.0206,596.1563 1716.6456,596.1563 Q1716.3019,596.1563 1716.0987,595.9531 Q1715.8956,595.7656 1715.7862,595.25 Q1715.7394,594.8906 1715.5519,594.7031 Q1715.2237,594.3281 1714.6144,594.1094 Q1714.005,593.8906 1713.38,593.8906 Q1712.6144,593.8906 1711.9737,594.2188 Q1711.3487,594.5469 1710.8487,595.2969 Q1710.3644,596.0469 1710.3644,597.0781 L1710.3644,598.1719 Q1710.3644,599.4063 1711.255,600.2344 Q1712.1456,601.0469 1713.7394,601.0469 Q1714.6769,601.0469 1715.3331,600.7969 Q1715.7237,600.6406 1716.1456,600.2031 Q1716.4112,599.9375 1716.5519,599.8594 Q1716.7081,599.7813 1716.9112,599.7813 Q1717.2394,599.7813 1717.4894,600.0469 Q1717.755,600.2969 1717.755,600.6406 Q1717.755,600.9844 1717.4112,601.3906 Q1716.9112,601.9688 1716.1144,602.2969 Q1715.0362,602.75 1713.7394,602.75 Q1712.2237,602.75 1711.0206,602.125 Q1710.0362,601.625 1709.3487,600.5625 Q1708.6612,599.4844 1708.6612,598.2031 L1708.6612,597.0469 Q1708.6612,595.7188 1709.2706,594.5781 Q1709.8956,593.4219 1710.9894,592.8125 Q1712.0831,592.1875 1713.3175,592.1875 Q1714.0519,592.1875 1714.6925,592.3594 Q1715.3487,592.5156 1715.8956,592.875 Z " fill="#000000"/><text fill="#000000" font-family="sans-serif" font-size="14" lengthAdjust="spacing" textLength="42" x="1733.63" y="602.7285">wallets</text><line style="stroke:#181818;stroke-width:0.5;" x1="1550.88" x2="1925.88" y1="613" y2="613"/><text fill="#000000" font-family="sans-serif" font-size="14" lengthAdjust="spacing" textLength="103" x="1555.88" y="631.5332">+id : bigint &#171;PK&#187;</text><text fill="#000000" font-family="sans-serif" font-size="14" lengthAdjust="spacing" textLength="131" x="1555.88" y="649.1426">user_id : bigint &#171;FK&#187;</text><text fill="#000000" font-family="sans-serif" font-size="14" lengthAdjust="spacing" textLength="134" x="1555.88" y="666.752">created_at : datetime</text><text fill="#000000" font-family="sans-serif" font-size="14" lengthAdjust="spacing" textLength="138" x="1555.88" y="684.3613">updated_at : datetime</text><line style="stroke:#181818;stroke-width:0.5;" x1="1550.88" x2="1925.88" y1="691.4375" y2="691.4375"/><text fill="#000000" font-family="sans-serif" font-size="14" lengthAdjust="spacing" textLength="129" x="1555.88" y="709.9707">name : varchar(100)</text><text fill="#000000" font-family="sans-serif" font-size="14" lengthAdjust="spacing" textLength="365" x="1555.88" y="727.5801">type : varchar(30)  ' e.g. cash, debit, bank_account, wallet</text><text fill="#000000" font-family="sans-serif" font-size="14" lengthAdjust="spacing" textLength="141" x="1555.88" y="745.1895">currency : varchar(10)</text><text fill="#000000" font-family="sans-serif" font-size="14" lengthAdjust="spacing" textLength="148" x="1555.88" y="762.7988">balance : decimal(14,2)</text></g><!--class buckets--><g id="elem_buckets"><rect codeLine="30" fill="#F1F1F1" height="171.2656" id="buckets" rx="2.5" ry="2.5" style="stroke:#181818;stroke-width:0.5;" width="403" x="186.88" y="327"/><ellipse cx="359.63" cy="343" fill="#ADD1B2" rx="11" ry="11" style="stroke:#181818;stroke-width:1.0;"/><path d="M362.3956,338.875 Q362.5519,338.6563 362.7394,338.5469 Q362.9269,338.4375 363.1456,338.4375 Q363.5206,338.4375 363.755,338.7031 Q363.9894,338.9531 363.9894,339.5625 L363.9894,341.0156 Q363.9894,341.625 363.755,341.8906 Q363.5206,342.1563 363.1456,342.1563 Q362.8019,342.1563 362.5988,341.9531 Q362.3956,341.7656 362.2863,341.25 Q362.2394,340.8906 362.0519,340.7031 Q361.7238,340.3281 361.1144,340.1094 Q360.505,339.8906 359.88,339.8906 Q359.1144,339.8906 358.4738,340.2188 Q357.8488,340.5469 357.3488,341.2969 Q356.8644,342.0469 356.8644,343.0781 L356.8644,344.1719 Q356.8644,345.4063 357.755,346.2344 Q358.6456,347.0469 360.2394,347.0469 Q361.1769,347.0469 361.8331,346.7969 Q362.2238,346.6406 362.6456,346.2031 Q362.9113,345.9375 363.0519,345.8594 Q363.2081,345.7813 363.4113,345.7813 Q363.7394,345.7813 363.9894,346.0469 Q364.255,346.2969 364.255,346.6406 Q364.255,346.9844 363.9113,347.3906 Q363.4113,347.9688 362.6144,348.2969 Q361.5363,348.75 360.2394,348.75 Q358.7238,348.75 357.5206,348.125 Q356.5363,347.625 355.8488,346.5625 Q355.1613,345.4844 355.1613,344.2031 L355.1613,343.0469 Q355.1613,341.7188 355.7706,340.5781 Q356.3956,339.4219 357.4894,338.8125 Q358.5831,338.1875 359.8175,338.1875 Q360.5519,338.1875 361.1925,338.3594 Q361.8488,338.5156 362.3956,338.875 Z " fill="#000000"/><text fill="#000000" font-family="sans-serif" font-size="14" lengthAdjust="spacing" textLength="49" x="380.13" y="348.7285">buckets</text><line style="stroke:#181818;stroke-width:0.5;" x1="187.88" x2="588.88" y1="359" y2="359"/><text fill="#000000" font-family="sans-serif" font-size="14" lengthAdjust="spacing" textLength="103" x="192.88" y="377.5332">+id : bigint &#171;PK&#187;</text><text fill="#000000" font-family="sans-serif" font-size="14" lengthAdjust="spacing" textLength="131" x="192.88" y="395.1426">user_id : bigint &#171;FK&#187;</text><text fill="#000000" font-family="sans-serif" font-size="14" lengthAdjust="spacing" textLength="103" x="192.88" y="412.752">description : text</text><text fill="#000000" font-family="sans-serif" font-size="14" lengthAdjust="spacing" textLength="134" x="192.88" y="430.3613">created_at : datetime</text><text fill="#000000" font-family="sans-serif" font-size="14" lengthAdjust="spacing" textLength="138" x="192.88" y="447.9707">updated_at : datetime</text><line style="stroke:#181818;stroke-width:0.5;" x1="187.88" x2="588.88" y1="455.0469" y2="455.0469"/><text fill="#000000" font-family="sans-serif" font-size="14" lengthAdjust="spacing" textLength="129" x="192.88" y="473.5801">name : varchar(100)</text><text fill="#000000" font-family="sans-serif" font-size="14" lengthAdjust="spacing" textLength="391" x="192.88" y="491.1895">kind : varchar(30) ' e.g. "obligatorio","ahorro","familiar","gusto"</text></g><!--class bucket_defaults--><g id="elem_bucket_defaults"><rect codeLine="41" fill="#F1F1F1" height="153.6563" id="bucket_defaults" rx="2.5" ry="2.5" style="stroke:#181818;stroke-width:0.5;" width="157" x="248.88" y="844"/><ellipse cx="275.13" cy="860" fill="#ADD1B2" rx="11" ry="11" style="stroke:#181818;stroke-width:1.0;"/><path d="M277.8956,855.875 Q278.0519,855.6563 278.2394,855.5469 Q278.4269,855.4375 278.6456,855.4375 Q279.0206,855.4375 279.255,855.7031 Q279.4894,855.9531 279.4894,856.5625 L279.4894,858.0156 Q279.4894,858.625 279.255,858.8906 Q279.0206,859.1563 278.6456,859.1563 Q278.3019,859.1563 278.0988,858.9531 Q277.8956,858.7656 277.7863,858.25 Q277.7394,857.8906 277.5519,857.7031 Q277.2238,857.3281 276.6144,857.1094 Q276.005,856.8906 275.38,856.8906 Q274.6144,856.8906 273.9738,857.2188 Q273.3488,857.5469 272.8488,858.2969 Q272.3644,859.0469 272.3644,860.0781 L272.3644,861.1719 Q272.3644,862.4063 273.255,863.2344 Q274.1456,864.0469 275.7394,864.0469 Q276.6769,864.0469 277.3331,863.7969 Q277.7238,863.6406 278.1456,863.2031 Q278.4113,862.9375 278.5519,862.8594 Q278.7081,862.7813 278.9113,862.7813 Q279.2394,862.7813 279.4894,863.0469 Q279.755,863.2969 279.755,863.6406 Q279.755,863.9844 279.4113,864.3906 Q278.9113,864.9688 278.1144,865.2969 Q277.0363,865.75 275.7394,865.75 Q274.2238,865.75 273.0206,865.125 Q272.0363,864.625 271.3488,863.5625 Q270.6613,862.4844 270.6613,861.2031 L270.6613,860.0469 Q270.6613,858.7188 271.2706,857.5781 Q271.8956,856.4219 272.9894,855.8125 Q274.0831,855.1875 275.3175,855.1875 Q276.0519,855.1875 276.6925,855.3594 Q277.3488,855.5156 277.8956,855.875 Z " fill="#000000"/><text fill="#000000" font-family="sans-serif" font-size="14" lengthAdjust="spacing" textLength="100" x="291.63" y="865.7285">bucket_defaults</text><line style="stroke:#181818;stroke-width:0.5;" x1="249.88" x2="404.88" y1="876" y2="876"/><text fill="#000000" font-family="sans-serif" font-size="14" lengthAdjust="spacing" textLength="103" x="254.88" y="894.5332">+id : bigint &#171;PK&#187;</text><text fill="#000000" font-family="sans-serif" font-size="14" lengthAdjust="spacing" textLength="145" x="254.88" y="912.1426">bucket_id : bigint &#171;FK&#187;</text><text fill="#000000" font-family="sans-serif" font-size="14" lengthAdjust="spacing" textLength="129" x="254.88" y="929.752">effective_from : date</text><text fill="#000000" font-family="sans-serif" font-size="14" lengthAdjust="spacing" textLength="134" x="254.88" y="947.3613">created_at : datetime</text><line style="stroke:#181818;stroke-width:0.5;" x1="249.88" x2="404.88" y1="954.4375" y2="954.4375"/><text fill="#000000" font-family="sans-serif" font-size="14" lengthAdjust="spacing" textLength="145" x="254.88" y="972.9707">amount : decimal(14,2)</text><text fill="#000000" font-family="sans-serif" font-size="14" lengthAdjust="spacing" textLength="122" x="254.88" y="990.5801">note : varchar(255)</text></g><!--class subcategories--><g id="elem_subcategories"><rect codeLine="51" fill="#F1F1F1" height="153.6563" id="subcategories" rx="2.5" ry="2.5" style="stroke:#181818;stroke-width:0.5;" width="157" x="440.88" y="844"/><ellipse cx="472.08" cy="860" fill="#ADD1B2" rx="11" ry="11" style="stroke:#181818;stroke-width:1.0;"/><path d="M474.8456,855.875 Q475.0019,855.6563 475.1894,855.5469 Q475.3769,855.4375 475.5956,855.4375 Q475.9706,855.4375 476.205,855.7031 Q476.4394,855.9531 476.4394,856.5625 L476.4394,858.0156 Q476.4394,858.625 476.205,858.8906 Q475.9706,859.1563 475.5956,859.1563 Q475.2519,859.1563 475.0488,858.9531 Q474.8456,858.7656 474.7363,858.25 Q474.6894,857.8906 474.5019,857.7031 Q474.1738,857.3281 473.5644,857.1094 Q472.955,856.8906 472.33,856.8906 Q471.5644,856.8906 470.9238,857.2188 Q470.2988,857.5469 469.7988,858.2969 Q469.3144,859.0469 469.3144,860.0781 L469.3144,861.1719 Q469.3144,862.4063 470.205,863.2344 Q471.0956,864.0469 472.6894,864.0469 Q473.6269,864.0469 474.2831,863.7969 Q474.6738,863.6406 475.0956,863.2031 Q475.3613,862.9375 475.5019,862.8594 Q475.6581,862.7813 475.8613,862.7813 Q476.1894,862.7813 476.4394,863.0469 Q476.705,863.2969 476.705,863.6406 Q476.705,863.9844 476.3613,864.3906 Q475.8613,864.9688 475.0644,865.2969 Q473.9863,865.75 472.6894,865.75 Q471.1738,865.75 469.9706,865.125 Q468.9863,864.625 468.2988,863.5625 Q467.6113,862.4844 467.6113,861.2031 L467.6113,860.0469 Q467.6113,858.7188 468.2206,857.5781 Q468.8456,856.4219 469.9394,855.8125 Q471.0331,855.1875 472.2675,855.1875 Q473.0019,855.1875 473.6425,855.3594 Q474.2988,855.5156 474.8456,855.875 Z " fill="#000000"/><text fill="#000000" font-family="sans-serif" font-size="14" lengthAdjust="spacing" textLength="89" x="489.68" y="865.7285">subcategories</text><line style="stroke:#181818;stroke-width:0.5;" x1="441.88" x2="596.88" y1="876" y2="876"/><text fill="#000000" font-family="sans-serif" font-size="14" lengthAdjust="spacing" textLength="103" x="446.88" y="894.5332">+id : bigint &#171;PK&#187;</text><text fill="#000000" font-family="sans-serif" font-size="14" lengthAdjust="spacing" textLength="145" x="446.88" y="912.1426">bucket_id : bigint &#171;FK&#187;</text><text fill="#000000" font-family="sans-serif" font-size="14" lengthAdjust="spacing" textLength="103" x="446.88" y="929.752">description : text</text><text fill="#000000" font-family="sans-serif" font-size="14" lengthAdjust="spacing" textLength="134" x="446.88" y="947.3613">created_at : datetime</text><text fill="#000000" font-family="sans-serif" font-size="14" lengthAdjust="spacing" textLength="138" x="446.88" y="964.9707">updated_at : datetime</text><line style="stroke:#181818;stroke-width:0.5;" x1="441.88" x2="596.88" y1="972.0469" y2="972.0469"/><text fill="#000000" font-family="sans-serif" font-size="14" lengthAdjust="spacing" textLength="129" x="446.88" y="990.5801">name : varchar(100)</text></g><!--class movements--><g id="elem_movements"><rect codeLine="61" fill="#F1F1F1" height="364.9688" id="movements" rx="2.5" ry="2.5" style="stroke:#181818;stroke-width:0.5;" width="530" x="685.38" y="1120"/><ellipse cx="910.13" cy="1136" fill="#ADD1B2" rx="11" ry="11" style="stroke:#181818;stroke-width:1.0;"/><path d="M912.8956,1131.875 Q913.0519,1131.6563 913.2394,1131.5469 Q913.4269,1131.4375 913.6456,1131.4375 Q914.0206,1131.4375 914.255,1131.7031 Q914.4894,1131.9531 914.4894,1132.5625 L914.4894,1134.0156 Q914.4894,1134.625 914.255,1134.8906 Q914.0206,1135.1563 913.6456,1135.1563 Q913.3019,1135.1563 913.0988,1134.9531 Q912.8956,1134.7656 912.7863,1134.25 Q912.7394,1133.8906 912.5519,1133.7031 Q912.2238,1133.3281 911.6144,1133.1094 Q911.005,1132.8906 910.38,1132.8906 Q909.6144,1132.8906 908.9738,1133.2188 Q908.3488,1133.5469 907.8488,1134.2969 Q907.3644,1135.0469 907.3644,1136.0781 L907.3644,1137.1719 Q907.3644,1138.4063 908.255,1139.2344 Q909.1456,1140.0469 910.7394,1140.0469 Q911.6769,1140.0469 912.3331,1139.7969 Q912.7238,1139.6406 913.1456,1139.2031 Q913.4113,1138.9375 913.5519,1138.8594 Q913.7081,1138.7813 913.9113,1138.7813 Q914.2394,1138.7813 914.4894,1139.0469 Q914.755,1139.2969 914.755,1139.6406 Q914.755,1139.9844 914.4113,1140.3906 Q913.9113,1140.9688 913.1144,1141.2969 Q912.0363,1141.75 910.7394,1141.75 Q909.2238,1141.75 908.0206,1141.125 Q907.0363,1140.625 906.3488,1139.5625 Q905.6613,1138.4844 905.6613,1137.2031 L905.6613,1136.0469 Q905.6613,1134.7188 906.2706,1133.5781 Q906.8956,1132.4219 907.9894,1131.8125 Q909.0831,1131.1875 910.3175,1131.1875 Q911.0519,1131.1875 911.6925,1131.3594 Q912.3488,1131.5156 912.8956,1131.875 Z " fill="#000000"/><text fill="#000000" font-family="sans-serif" font-size="14" lengthAdjust="spacing" textLength="72" x="930.63" y="1141.7285">movements</text><line style="stroke:#181818;stroke-width:0.5;" x1="686.38" x2="1214.38" y1="1152" y2="1152"/><text fill="#000000" font-family="sans-serif" font-size="14" lengthAdjust="spacing" textLength="103" x="691.38" y="1170.5332">+id : bigint &#171;PK&#187;</text><text fill="#000000" font-family="sans-serif" font-size="14" lengthAdjust="spacing" textLength="131" x="691.38" y="1188.1426">user_id : bigint &#171;FK&#187;</text><text fill="#000000" font-family="sans-serif" font-size="14" lengthAdjust="spacing" textLength="145" x="691.38" y="1205.752">bucket_id : bigint &#171;FK&#187;</text><text fill="#000000" font-family="sans-serif" font-size="14" lengthAdjust="spacing" textLength="181" x="691.38" y="1223.3613">subcategory_id : bigint &#171;FK&#187;</text><text fill="#000000" font-family="sans-serif" font-size="14" lengthAdjust="spacing" textLength="353" x="691.38" y="1240.9707">credit_card_id : bigint &#171;FK&#187;  ' nullable: si aplica a tarjeta</text><text fill="#000000" font-family="sans-serif" font-size="14" lengthAdjust="spacing" textLength="103" x="691.38" y="1258.5801">description : text</text><text fill="#000000" font-family="sans-serif" font-size="14" lengthAdjust="spacing" textLength="68" x="691.38" y="1276.1895">date : date</text><text fill="#000000" font-family="sans-serif" font-size="14" lengthAdjust="spacing" textLength="128" x="691.38" y="1293.7988">reconciled : boolean</text><text fill="#000000" font-family="sans-serif" font-size="14" lengthAdjust="spacing" textLength="97" x="691.38" y="1311.4082">metadata : json</text><text fill="#000000" font-family="sans-serif" font-size="14" lengthAdjust="spacing" textLength="134" x="691.38" y="1329.0176">created_at : datetime</text><text fill="#000000" font-family="sans-serif" font-size="14" lengthAdjust="spacing" textLength="138" x="691.38" y="1346.627">updated_at : datetime</text><line style="stroke:#181818;stroke-width:0.5;" x1="686.38" x2="1214.38" y1="1353.7031" y2="1353.7031"/><text fill="#000000" font-family="sans-serif" font-size="14" lengthAdjust="spacing" textLength="404" x="691.38" y="1372.2363">wallet_id : bigint &#171;FK&#187;    ' origen/medio (efectivo, d&#233;bito, cuenta)</text><text fill="#000000" font-family="sans-serif" font-size="14" lengthAdjust="spacing" textLength="485" x="691.38" y="1389.8457">related_movement_id : bigint &#171;FK&#187; ' opcional (p.ej. pago que liquida compra)</text><text fill="#000000" font-family="sans-serif" font-size="14" lengthAdjust="spacing" textLength="492" x="691.38" y="1407.4551">type : varchar(30)  ' income | expense | transfer | card_payment | card_interest</text><text fill="#000000" font-family="sans-serif" font-size="14" lengthAdjust="spacing" textLength="329" x="691.38" y="1425.0645">origin : varchar(20) ' CASH | DEBIT | CREDIT_CARD</text><text fill="#000000" font-family="sans-serif" font-size="14" lengthAdjust="spacing" textLength="518" x="691.38" y="1442.6738">card_tx_type : varchar(30) ' purchase | payment | interest | reversal | fee (si aplica)</text><text fill="#000000" font-family="sans-serif" font-size="14" lengthAdjust="spacing" textLength="145" x="691.38" y="1460.2832">amount : decimal(14,2)</text><text fill="#000000" font-family="sans-serif" font-size="14" lengthAdjust="spacing" textLength="141" x="691.38" y="1477.8926">currency : varchar(10)</text></g><!--class credit_cards--><g id="elem_credit_cards"><rect codeLine="83" fill="#F1F1F1" height="276.9219" id="credit_cards" rx="2.5" ry="2.5" style="stroke:#181818;stroke-width:0.5;" width="400" x="685.38" y="274"/><ellipse cx="842.13" cy="290" fill="#ADD1B2" rx="11" ry="11" style="stroke:#181818;stroke-width:1.0;"/><path d="M844.8956,285.875 Q845.0519,285.6563 845.2394,285.5469 Q845.4269,285.4375 845.6456,285.4375 Q846.0206,285.4375 846.255,285.7031 Q846.4894,285.9531 846.4894,286.5625 L846.4894,288.0156 Q846.4894,288.625 846.255,288.8906 Q846.0206,289.1563 845.6456,289.1563 Q845.3019,289.1563 845.0988,288.9531 Q844.8956,288.7656 844.7863,288.25 Q844.7394,287.8906 844.5519,287.7031 Q844.2238,287.3281 843.6144,287.1094 Q843.005,286.8906 842.38,286.8906 Q841.6144,286.8906 840.9738,287.2188 Q840.3488,287.5469 839.8488,288.2969 Q839.3644,289.0469 839.3644,290.0781 L839.3644,291.1719 Q839.3644,292.4063 840.255,293.2344 Q841.1456,294.0469 842.7394,294.0469 Q843.6769,294.0469 844.3331,293.7969 Q844.7238,293.6406 845.1456,293.2031 Q845.4113,292.9375 845.5519,292.8594 Q845.7081,292.7813 845.9113,292.7813 Q846.2394,292.7813 846.4894,293.0469 Q846.755,293.2969 846.755,293.6406 Q846.755,293.9844 846.4113,294.3906 Q845.9113,294.9688 845.1144,295.2969 Q844.0363,295.75 842.7394,295.75 Q841.2238,295.75 840.0206,295.125 Q839.0363,294.625 838.3488,293.5625 Q837.6613,292.4844 837.6613,291.2031 L837.6613,290.0469 Q837.6613,288.7188 838.2706,287.5781 Q838.8956,286.4219 839.9894,285.8125 Q841.0831,285.1875 842.3175,285.1875 Q843.0519,285.1875 843.6925,285.3594 Q844.3488,285.5156 844.8956,285.875 Z " fill="#000000"/><text fill="#000000" font-family="sans-serif" font-size="14" lengthAdjust="spacing" textLength="78" x="862.63" y="295.7285">credit_cards</text><line style="stroke:#181818;stroke-width:0.5;" x1="686.38" x2="1084.38" y1="306" y2="306"/><text fill="#000000" font-family="sans-serif" font-size="14" lengthAdjust="spacing" textLength="103" x="691.38" y="324.5332">+id : bigint &#171;PK&#187;</text><text fill="#000000" font-family="sans-serif" font-size="14" lengthAdjust="spacing" textLength="131" x="691.38" y="342.1426">user_id : bigint &#171;FK&#187;</text><text fill="#000000" font-family="sans-serif" font-size="14" lengthAdjust="spacing" textLength="100" x="691.38" y="359.752">active : boolean</text><text fill="#000000" font-family="sans-serif" font-size="14" lengthAdjust="spacing" textLength="134" x="691.38" y="377.3613">created_at : datetime</text><text fill="#000000" font-family="sans-serif" font-size="14" lengthAdjust="spacing" textLength="138" x="691.38" y="394.9707">updated_at : datetime</text><line style="stroke:#181818;stroke-width:0.5;" x1="686.38" x2="1084.38" y1="402.0469" y2="402.0469"/><text fill="#000000" font-family="sans-serif" font-size="14" lengthAdjust="spacing" textLength="308" x="691.38" y="420.5801">name : varchar(100) ' "Visa - Banco X (****1234)"</text><text fill="#000000" font-family="sans-serif" font-size="14" lengthAdjust="spacing" textLength="125" x="691.38" y="438.1895">bank : varchar(100)</text><text fill="#000000" font-family="sans-serif" font-size="14" lengthAdjust="spacing" textLength="141" x="691.38" y="455.7988">currency : varchar(10)</text><text fill="#000000" font-family="sans-serif" font-size="14" lengthAdjust="spacing" textLength="165" x="691.38" y="473.4082">credit_limit : decimal(14,2)</text><text fill="#000000" font-family="sans-serif" font-size="14" lengthAdjust="spacing" textLength="243" x="691.38" y="491.0176">billing_day : tinyint ' d&#237;a de corte (ej. 9)</text><text fill="#000000" font-family="sans-serif" font-size="14" lengthAdjust="spacing" textLength="309" x="691.38" y="508.627">payment_due_day : tinyint ' d&#237;a l&#237;mite pago (ej. 2)</text><text fill="#000000" font-family="sans-serif" font-size="14" lengthAdjust="spacing" textLength="388" x="691.38" y="526.2363">annual_rate_pct : decimal(6,3) ' e.g. 64.80 (porcentaje anual)</text><text fill="#000000" font-family="sans-serif" font-size="14" lengthAdjust="spacing" textLength="368" x="691.38" y="543.8457">monthly_rate_pct : decimal(6,3) ' opcional si banco provee</text></g><!--class card_cycles--><g id="elem_card_cycles"><rect codeLine="100" fill="#F1F1F1" height="241.7031" id="card_cycles" rx="2.5" ry="2.5" style="stroke:#181818;stroke-width:0.5;" width="227" x="771.88" y="800"/><ellipse cx="843.63" cy="816" fill="#ADD1B2" rx="11" ry="11" style="stroke:#181818;stroke-width:1.0;"/><path d="M846.3956,811.875 Q846.5519,811.6563 846.7394,811.5469 Q846.9269,811.4375 847.1456,811.4375 Q847.5206,811.4375 847.755,811.7031 Q847.9894,811.9531 847.9894,812.5625 L847.9894,814.0156 Q847.9894,814.625 847.755,814.8906 Q847.5206,815.1563 847.1456,815.1563 Q846.8019,815.1563 846.5988,814.9531 Q846.3956,814.7656 846.2863,814.25 Q846.2394,813.8906 846.0519,813.7031 Q845.7238,813.3281 845.1144,813.1094 Q844.505,812.8906 843.88,812.8906 Q843.1144,812.8906 842.4738,813.2188 Q841.8488,813.5469 841.3488,814.2969 Q840.8644,815.0469 840.8644,816.0781 L840.8644,817.1719 Q840.8644,818.4063 841.755,819.2344 Q842.6456,820.0469 844.2394,820.0469 Q845.1769,820.0469 845.8331,819.7969 Q846.2238,819.6406 846.6456,819.2031 Q846.9113,818.9375 847.0519,818.8594 Q847.2081,818.7813 847.4113,818.7813 Q847.7394,818.7813 847.9894,819.0469 Q848.255,819.2969 848.255,819.6406 Q848.255,819.9844 847.9113,820.3906 Q847.4113,820.9688 846.6144,821.2969 Q845.5363,821.75 844.2394,821.75 Q842.7238,821.75 841.5206,821.125 Q840.5363,820.625 839.8488,819.5625 Q839.1613,818.4844 839.1613,817.2031 L839.1613,816.0469 Q839.1613,814.7188 839.7706,813.5781 Q840.3956,812.4219 841.4894,811.8125 Q842.5831,811.1875 843.8175,811.1875 Q844.5519,811.1875 845.1925,811.3594 Q845.8488,811.5156 846.3956,811.875 Z " fill="#000000"/><text fill="#000000" font-family="sans-serif" font-size="14" lengthAdjust="spacing" textLength="75" x="864.13" y="821.7285">card_cycles</text><line style="stroke:#181818;stroke-width:0.5;" x1="772.88" x2="997.88" y1="832" y2="832"/><text fill="#000000" font-family="sans-serif" font-size="14" lengthAdjust="spacing" textLength="103" x="777.88" y="850.5332">+id : bigint &#171;PK&#187;</text><text fill="#000000" font-family="sans-serif" font-size="14" lengthAdjust="spacing" textLength="174" x="777.88" y="868.1426">credit_card_id : bigint &#171;FK&#187;</text><text fill="#000000" font-family="sans-serif" font-size="14" lengthAdjust="spacing" textLength="116" x="777.88" y="885.752">period_start : date</text><text fill="#000000" font-family="sans-serif" font-size="14" lengthAdjust="spacing" textLength="112" x="777.88" y="903.3613">period_end : date</text><text fill="#000000" font-family="sans-serif" font-size="14" lengthAdjust="spacing" textLength="138" x="777.88" y="920.9707">statement_date : date</text><text fill="#000000" font-family="sans-serif" font-size="14" lengthAdjust="spacing" textLength="100" x="777.88" y="938.5801">due_date : date</text><text fill="#000000" font-family="sans-serif" font-size="14" lengthAdjust="spacing" textLength="103" x="777.88" y="956.1895">paid_date : date</text><text fill="#000000" font-family="sans-serif" font-size="14" lengthAdjust="spacing" textLength="134" x="777.88" y="973.7988">created_at : datetime</text><line style="stroke:#181818;stroke-width:0.5;" x1="772.88" x2="997.88" y1="980.875" y2="980.875"/><text fill="#000000" font-family="sans-serif" font-size="14" lengthAdjust="spacing" textLength="215" x="777.88" y="999.4082">statement_amount : decimal(14,2)</text><text fill="#000000" font-family="sans-serif" font-size="14" lengthAdjust="spacing" textLength="180" x="777.88" y="1017.0176">paid_amount : decimal(14,2)</text><text fill="#000000" font-family="sans-serif" font-size="14" lengthAdjust="spacing" textLength="205" x="777.88" y="1034.627">interest_charged : decimal(14,2)</text></g><!--class tags--><g id="elem_tags"><rect codeLine="115" fill="#F1F1F1" height="100.8281" id="tags" rx="2.5" ry="2.5" style="stroke:#181818;stroke-width:0.5;" width="143" x="1250.88" y="1252"/><ellipse cx="1304.63" cy="1268" fill="#ADD1B2" rx="11" ry="11" style="stroke:#181818;stroke-width:1.0;"/><path d="M1307.3956,1263.875 Q1307.5519,1263.6563 1307.7394,1263.5469 Q1307.9269,1263.4375 1308.1456,1263.4375 Q1308.5206,1263.4375 1308.755,1263.7031 Q1308.9894,1263.9531 1308.9894,1264.5625 L1308.9894,1266.0156 Q1308.9894,1266.625 1308.755,1266.8906 Q1308.5206,1267.1563 1308.1456,1267.1563 Q1307.8019,1267.1563 1307.5987,1266.9531 Q1307.3956,1266.7656 1307.2862,1266.25 Q1307.2394,1265.8906 1307.0519,1265.7031 Q1306.7237,1265.3281 1306.1144,1265.1094 Q1305.505,1264.8906 1304.88,1264.8906 Q1304.1144,1264.8906 1303.4737,1265.2188 Q1302.8487,1265.5469 1302.3487,1266.2969 Q1301.8644,1267.0469 1301.8644,1268.0781 L1301.8644,1269.1719 Q1301.8644,1270.4063 1302.755,1271.2344 Q1303.6456,1272.0469 1305.2394,1272.0469 Q1306.1769,1272.0469 1306.8331,1271.7969 Q1307.2237,1271.6406 1307.6456,1271.2031 Q1307.9112,1270.9375 1308.0519,1270.8594 Q1308.2081,1270.7813 1308.4112,1270.7813 Q1308.7394,1270.7813 1308.9894,1271.0469 Q1309.255,1271.2969 1309.255,1271.6406 Q1309.255,1271.9844 1308.9112,1272.3906 Q1308.4112,1272.9688 1307.6144,1273.2969 Q1306.5362,1273.75 1305.2394,1273.75 Q1303.7237,1273.75 1302.5206,1273.125 Q1301.5362,1272.625 1300.8487,1271.5625 Q1300.1612,1270.4844 1300.1612,1269.2031 L1300.1612,1268.0469 Q1300.1612,1266.7188 1300.7706,1265.5781 Q1301.3956,1264.4219 1302.4894,1263.8125 Q1303.5831,1263.1875 1304.8175,1263.1875 Q1305.5519,1263.1875 1306.1925,1263.3594 Q1306.8487,1263.5156 1307.3956,1263.875 Z " fill="#000000"/><text fill="#000000" font-family="sans-serif" font-size="14" lengthAdjust="spacing" textLength="27" x="1325.13" y="1273.7285">tags</text><line style="stroke:#181818;stroke-width:0.5;" x1="1251.88" x2="1392.88" y1="1284" y2="1284"/><text fill="#000000" font-family="sans-serif" font-size="14" lengthAdjust="spacing" textLength="103" x="1256.88" y="1302.5332">+id : bigint &#171;PK&#187;</text><text fill="#000000" font-family="sans-serif" font-size="14" lengthAdjust="spacing" textLength="131" x="1256.88" y="1320.1426">user_id : bigint &#171;FK&#187;</text><line style="stroke:#181818;stroke-width:0.5;" x1="1251.88" x2="1392.88" y1="1327.2188" y2="1327.2188"/><text fill="#000000" font-family="sans-serif" font-size="14" lengthAdjust="spacing" textLength="121" x="1256.88" y="1345.752">name : varchar(50)</text></g><!--class movement_tag--><g id="elem_movement_tag"><rect codeLine="121" fill="#F1F1F1" height="100.8281" id="movement_tag" rx="2.5" ry="2.5" style="stroke:#181818;stroke-width:0.5;" width="180" x="1046.38" y="1563"/><ellipse cx="1086.13" cy="1579" fill="#ADD1B2" rx="11" ry="11" style="stroke:#181818;stroke-width:1.0;"/><path d="M1088.8956,1574.875 Q1089.0519,1574.6563 1089.2394,1574.5469 Q1089.4269,1574.4375 1089.6456,1574.4375 Q1090.0206,1574.4375 1090.255,1574.7031 Q1090.4894,1574.9531 1090.4894,1575.5625 L1090.4894,1577.0156 Q1090.4894,1577.625 1090.255,1577.8906 Q1090.0206,1578.1563 1089.6456,1578.1563 Q1089.3019,1578.1563 1089.0988,1577.9531 Q1088.8956,1577.7656 1088.7863,1577.25 Q1088.7394,1576.8906 1088.5519,1576.7031 Q1088.2238,1576.3281 1087.6144,1576.1094 Q1087.005,1575.8906 1086.38,1575.8906 Q1085.6144,1575.8906 1084.9738,1576.2188 Q1084.3488,1576.5469 1083.8488,1577.2969 Q1083.3644,1578.0469 1083.3644,1579.0781 L1083.3644,1580.1719 Q1083.3644,1581.4063 1084.255,1582.2344 Q1085.1456,1583.0469 1086.7394,1583.0469 Q1087.6769,1583.0469 1088.3331,1582.7969 Q1088.7238,1582.6406 1089.1456,1582.2031 Q1089.4113,1581.9375 1089.5519,1581.8594 Q1089.7081,1581.7813 1089.9113,1581.7813 Q1090.2394,1581.7813 1090.4894,1582.0469 Q1090.755,1582.2969 1090.755,1582.6406 Q1090.755,1582.9844 1090.4113,1583.3906 Q1089.9113,1583.9688 1089.1144,1584.2969 Q1088.0363,1584.75 1086.7394,1584.75 Q1085.2238,1584.75 1084.0206,1584.125 Q1083.0363,1583.625 1082.3488,1582.5625 Q1081.6613,1581.4844 1081.6613,1580.2031 L1081.6613,1579.0469 Q1081.6613,1577.7188 1082.2706,1576.5781 Q1082.8956,1575.4219 1083.9894,1574.8125 Q1085.0831,1574.1875 1086.3175,1574.1875 Q1087.0519,1574.1875 1087.6925,1574.3594 Q1088.3488,1574.5156 1088.8956,1574.875 Z " fill="#000000"/><text fill="#000000" font-family="sans-serif" font-size="14" lengthAdjust="spacing" textLength="93" x="1105.63" y="1584.7285">movement_tag</text><line style="stroke:#181818;stroke-width:0.5;" x1="1047.38" x2="1225.38" y1="1595" y2="1595"/><text fill="#000000" font-family="sans-serif" font-size="14" lengthAdjust="spacing" textLength="103" x="1052.38" y="1613.5332">+id : bigint &#171;PK&#187;</text><text fill="#000000" font-family="sans-serif" font-size="14" lengthAdjust="spacing" textLength="168" x="1052.38" y="1631.1426">movement_id : bigint &#171;FK&#187;</text><text fill="#000000" font-family="sans-serif" font-size="14" lengthAdjust="spacing" textLength="123" x="1052.38" y="1648.752">tag_id : bigint &#171;FK&#187;</text><line style="stroke:#181818;stroke-width:0.5;" x1="1047.38" x2="1225.38" y1="1655.8281" y2="1655.8281"/></g><!--class shared_funds--><g id="elem_shared_funds"><rect codeLine="128" fill="#F1F1F1" height="153.6563" id="shared_funds" rx="2.5" ry="2.5" style="stroke:#181818;stroke-width:0.5;" width="153" x="1684.88" y="24.5"/><ellipse cx="1715.18" cy="40.5" fill="#ADD1B2" rx="11" ry="11" style="stroke:#181818;stroke-width:1.0;"/><path d="M1717.9456,36.375 Q1718.1019,36.1563 1718.2894,36.0469 Q1718.4769,35.9375 1718.6956,35.9375 Q1719.0706,35.9375 1719.305,36.2031 Q1719.5394,36.4531 1719.5394,37.0625 L1719.5394,38.5156 Q1719.5394,39.125 1719.305,39.3906 Q1719.0706,39.6563 1718.6956,39.6563 Q1718.3519,39.6563 1718.1487,39.4531 Q1717.9456,39.2656 1717.8362,38.75 Q1717.7894,38.3906 1717.6019,38.2031 Q1717.2737,37.8281 1716.6644,37.6094 Q1716.055,37.3906 1715.43,37.3906 Q1714.6644,37.3906 1714.0237,37.7188 Q1713.3987,38.0469 1712.8987,38.7969 Q1712.4144,39.5469 1712.4144,40.5781 L1712.4144,41.6719 Q1712.4144,42.9063 1713.305,43.7344 Q1714.1956,44.5469 1715.7894,44.5469 Q1716.7269,44.5469 1717.3831,44.2969 Q1717.7737,44.1406 1718.1956,43.7031 Q1718.4612,43.4375 1718.6019,43.3594 Q1718.7581,43.2813 1718.9612,43.2813 Q1719.2894,43.2813 1719.5394,43.5469 Q1719.805,43.7969 1719.805,44.1406 Q1719.805,44.4844 1719.4612,44.8906 Q1718.9612,45.4688 1718.1644,45.7969 Q1717.0862,46.25 1715.7894,46.25 Q1714.2737,46.25 1713.0706,45.625 Q1712.0862,45.125 1711.3987,44.0625 Q1710.7112,42.9844 1710.7112,41.7031 L1710.7112,40.5469 Q1710.7112,39.2188 1711.3206,38.0781 Q1711.9456,36.9219 1713.0394,36.3125 Q1714.1331,35.6875 1715.3675,35.6875 Q1716.1019,35.6875 1716.7425,35.8594 Q1717.3987,36.0156 1717.9456,36.375 Z " fill="#000000"/><text fill="#000000" font-family="sans-serif" font-size="14" lengthAdjust="spacing" textLength="87" x="1732.58" y="46.2285">shared_funds</text><line style="stroke:#181818;stroke-width:0.5;" x1="1685.88" x2="1836.88" y1="56.5" y2="56.5"/><text fill="#000000" font-family="sans-serif" font-size="14" lengthAdjust="spacing" textLength="103" x="1690.88" y="75.0332">+id : bigint &#171;PK&#187;</text><text fill="#000000" font-family="sans-serif" font-size="14" lengthAdjust="spacing" textLength="103" x="1690.88" y="92.6426">description : text</text><text fill="#000000" font-family="sans-serif" font-size="14" lengthAdjust="spacing" textLength="134" x="1690.88" y="110.252">created_at : datetime</text><text fill="#000000" font-family="sans-serif" font-size="14" lengthAdjust="spacing" textLength="138" x="1690.88" y="127.8613">updated_at : datetime</text><line style="stroke:#181818;stroke-width:0.5;" x1="1685.88" x2="1836.88" y1="134.9375" y2="134.9375"/><text fill="#000000" font-family="sans-serif" font-size="14" lengthAdjust="spacing" textLength="129" x="1690.88" y="153.4707">name : varchar(150)</text><text fill="#000000" font-family="sans-serif" font-size="14" lengthAdjust="spacing" textLength="141" x="1690.88" y="171.0801">currency : varchar(10)</text></g><!--class shared_fund_members--><g id="elem_shared_fund_members"><rect codeLine="137" fill="#F1F1F1" height="136.0469" id="shared_fund_members" rx="2.5" ry="2.5" style="stroke:#181818;stroke-width:0.5;" width="235" x="1627.88" y="344.5"/><ellipse cx="1668.53" cy="360.5" fill="#ADD1B2" rx="11" ry="11" style="stroke:#181818;stroke-width:1.0;"/><path d="M1671.2956,356.375 Q1671.4519,356.1563 1671.6394,356.0469 Q1671.8269,355.9375 1672.0456,355.9375 Q1672.4206,355.9375 1672.655,356.2031 Q1672.8894,356.4531 1672.8894,357.0625 L1672.8894,358.5156 Q1672.8894,359.125 1672.655,359.3906 Q1672.4206,359.6563 1672.0456,359.6563 Q1671.7019,359.6563 1671.4988,359.4531 Q1671.2956,359.2656 1671.1863,358.75 Q1671.1394,358.3906 1670.9519,358.2031 Q1670.6238,357.8281 1670.0144,357.6094 Q1669.405,357.3906 1668.78,357.3906 Q1668.0144,357.3906 1667.3738,357.7188 Q1666.7488,358.0469 1666.2488,358.7969 Q1665.7644,359.5469 1665.7644,360.5781 L1665.7644,361.6719 Q1665.7644,362.9063 1666.655,363.7344 Q1667.5456,364.5469 1669.1394,364.5469 Q1670.0769,364.5469 1670.7331,364.2969 Q1671.1238,364.1406 1671.5456,363.7031 Q1671.8113,363.4375 1671.9519,363.3594 Q1672.1081,363.2813 1672.3113,363.2813 Q1672.6394,363.2813 1672.8894,363.5469 Q1673.155,363.7969 1673.155,364.1406 Q1673.155,364.4844 1672.8113,364.8906 Q1672.3113,365.4688 1671.5144,365.7969 Q1670.4363,366.25 1669.1394,366.25 Q1667.6238,366.25 1666.4206,365.625 Q1665.4363,365.125 1664.7488,364.0625 Q1664.0613,362.9844 1664.0613,361.7031 L1664.0613,360.5469 Q1664.0613,359.2188 1664.6706,358.0781 Q1665.2956,356.9219 1666.3894,356.3125 Q1667.4831,355.6875 1668.7175,355.6875 Q1669.4519,355.6875 1670.0925,355.8594 Q1670.7488,356.0156 1671.2956,356.375 Z " fill="#000000"/><text fill="#000000" font-family="sans-serif" font-size="14" lengthAdjust="spacing" textLength="146" x="1688.23" y="366.2285">shared_fund_members</text><line style="stroke:#181818;stroke-width:0.5;" x1="1628.88" x2="1861.88" y1="376.5" y2="376.5"/><text fill="#000000" font-family="sans-serif" font-size="14" lengthAdjust="spacing" textLength="103" x="1633.88" y="395.0332">+id : bigint &#171;PK&#187;</text><text fill="#000000" font-family="sans-serif" font-size="14" lengthAdjust="spacing" textLength="183" x="1633.88" y="412.6426">shared_fund_id : bigint &#171;FK&#187;</text><text fill="#000000" font-family="sans-serif" font-size="14" lengthAdjust="spacing" textLength="131" x="1633.88" y="430.252">user_id : bigint &#171;FK&#187;</text><line style="stroke:#181818;stroke-width:0.5;" x1="1628.88" x2="1861.88" y1="437.3281" y2="437.3281"/><text fill="#000000" font-family="sans-serif" font-size="14" lengthAdjust="spacing" textLength="221" x="1633.88" y="455.8613">role : varchar(30) ' owner | member</text><text fill="#000000" font-family="sans-serif" font-size="14" lengthAdjust="spacing" textLength="223" x="1633.88" y="473.4707">contribution_default : decimal(14,2)</text></g><g id="elem_GMN29"><path d="M1033.88,891.5 L1033.88,950.5547 A0,0 0 0 0 1033.88,950.5547 L1208.11,950.5547 L1085.9,1119.78 L1216.11,950.5547 L1432.88,950.5547 A0,0 0 0 0 1432.88,950.5547 L1432.88,901.5 L1422.88,891.5 L1033.88,891.5 A0,0 0 0 0 1033.88,891.5 " fill="#FEFFDD" style="stroke:#181818;stroke-width:0.5;"/><path d="M1422.88,891.5 L1422.88,901.5 L1432.88,901.5 L1422.88,891.5 " fill="#FEFFDD" style="stroke:#181818;stroke-width:0.5;"/><text fill="#000000" font-family="sans-serif" font-size="13" lengthAdjust="spacing" textLength="246" x="1039.88" y="909.9951">movements guarda todos los movimientos:</text><text fill="#000000" font-family="sans-serif" font-size="13" lengthAdjust="spacing" textLength="378" x="1039.88" y="926.3467">- si origin = CREDIT_CARD -&gt; credit_card_id debe estar presente</text><text fill="#000000" font-family="sans-serif" font-size="13" lengthAdjust="spacing" textLength="327" x="1039.88" y="942.6982">- related_movement_id permite enlazar pagos a compras</text></g><g id="elem_GMN32"><path d="M713.38,80 L713.38,122.7031 A0,0 0 0 0 713.38,122.7031 L881.38,122.7031 L885.38,273.82 L889.38,122.7031 L1057.38,122.7031 A0,0 0 0 0 1057.38,122.7031 L1057.38,90 L1047.38,80 L713.38,80 A0,0 0 0 0 713.38,80 " fill="#FEFFDD" style="stroke:#181818;stroke-width:0.5;"/><path d="M1047.38,80 L1047.38,90 L1057.38,90 L1047.38,80 " fill="#FEFFDD" style="stroke:#181818;stroke-width:0.5;"/><text fill="#000000" font-family="sans-serif" font-size="13" lengthAdjust="spacing" textLength="244" x="719.38" y="98.4951">credit_cards guarda tasas, corte y l&#237;mites.</text><text fill="#000000" font-family="sans-serif" font-size="13" lengthAdjust="spacing" textLength="323" x="719.38" y="114.8467">card_cycles guarda el resumen por per&#237;odo (statement).</text></g><!--link users to wallets--><g id="link_users_wallets"><path codeLine="146" d="M1506.2,196.39 C1531.1,309.35 1574.87,491.29 1610.38,551 C1616.46,561.22 1623.6,571.16 1631.36,580.67 " fill="none" id="users-wallets" style="stroke:#181818;stroke-width:1.0;"/><polygon fill="#000000" points="1523.9284,239.93,1523.9217,230.4194,1518.3328,232.2397,1523.9284,239.93" style="stroke:#000000;stroke-width:1.0;"/><text fill="#000000" font-family="sans-serif" font-size="13" lengthAdjust="spacing" textLength="30" x="1531.38" y="240.4951">owns</text><text fill="#000000" font-family="sans-serif" font-size="13" lengthAdjust="spacing" textLength="7" x="1500.3985" y="217.4586">1</text><text fill="#000000" font-family="sans-serif" font-size="13" lengthAdjust="spacing" textLength="22" x="1599.9553" y="569.9898">0..n</text></g><!--link users to buckets--><g id="link_users_buckets"><path codeLine="147" d="M1383.73,126.81 C1300.51,146.27 1180.1,173.88 1074.38,196 C894.11,233.72 842,215.43 667.38,274 C625.27,288.12 581.42,307.37 541.29,326.98 " fill="none" id="users-buckets" style="stroke:#181818;stroke-width:1.0;"/><polygon fill="#000000" points="876.5154,236.3316,885.9949,237.1,884.6361,231.3814,876.5154,236.3316" style="stroke:#000000;stroke-width:1.0;"/><text fill="#000000" font-family="sans-serif" font-size="13" lengthAdjust="spacing" textLength="30" x="890.38" y="240.4951">owns</text><text fill="#000000" font-family="sans-serif" font-size="13" lengthAdjust="spacing" textLength="7" x="1368.9346" y="125.5938">1</text><text fill="#000000" font-family="sans-serif" font-size="13" lengthAdjust="spacing" textLength="22" x="531.9289" y="316.1498">0..n</text></g><!--link buckets to bucket_defaults--><g id="link_buckets_bucket_defaults"><path codeLine="148" d="M378.17,498.28 C366.56,594.73 347.75,750.86 336.58,843.66 " fill="none" id="buckets-bucket_defaults" style="stroke:#181818;stroke-width:1.0;"/><polygon fill="#000000" points="371.7822,680.6399,375.7815,672.0111,369.9458,671.3083,371.7822,680.6399" style="stroke:#000000;stroke-width:1.0;"/><text fill="#000000" font-family="sans-serif" font-size="13" lengthAdjust="spacing" textLength="21" x="381.38" y="680.9951">has</text><text fill="#000000" font-family="sans-serif" font-size="13" lengthAdjust="spacing" textLength="7" x="369.9918" y="519.838">1</text><text fill="#000000" font-family="sans-serif" font-size="13" lengthAdjust="spacing" textLength="22" x="314.4084" y="833.0543">0..n</text></g><!--link buckets to subcategories--><g id="link_buckets_subcategories"><path codeLine="149" d="M410.31,498.28 C435.26,594.73 475.64,750.86 499.64,843.66 " fill="none" id="buckets-subcategories" style="stroke:#181818;stroke-width:1.0;"/><polygon fill="#000000" points="483.632,680.5165,484.2124,671.0237,478.5218,672.4955,483.632,680.5165" style="stroke:#000000;stroke-width:1.0;"/><text fill="#000000" font-family="sans-serif" font-size="13" lengthAdjust="spacing" textLength="21" x="491.38" y="680.9951">has</text><text fill="#000000" font-family="sans-serif" font-size="13" lengthAdjust="spacing" textLength="7" x="404.8938" y="519.838">1</text><text fill="#000000" font-family="sans-serif" font-size="13" lengthAdjust="spacing" textLength="22" x="474.7101" y="833.0543">0..n</text></g><!--link users to credit_cards--><g id="link_users_credit_cards"><path codeLine="150" d="M1383.75,155.27 C1302.11,197.24 1185.41,257.24 1085.45,308.64 " fill="none" id="users-credit_cards" style="stroke:#181818;stroke-width:1.0;"/><polygon fill="#000000" points="1240.9333,237.462,1250.3213,235.9399,1247.6336,230.7125,1240.9333,237.462" style="stroke:#000000;stroke-width:1.0;"/><text fill="#000000" font-family="sans-serif" font-size="13" lengthAdjust="spacing" textLength="30" x="1254.38" y="240.4951">owns</text><text fill="#000000" font-family="sans-serif" font-size="13" lengthAdjust="spacing" textLength="7" x="1368.9561" y="156.1439">1</text><text fill="#000000" font-family="sans-serif" font-size="13" lengthAdjust="spacing" textLength="22" x="1093.6949" y="301.774">0..n</text></g><!--link credit_cards to card_cycles--><g id="link_credit_cards_card_cycles"><path codeLine="151" d="M885.38,551.23 C885.38,629.01 885.38,725.28 885.38,799.96 " fill="none" id="credit_cards-card_cycles" style="stroke:#181818;stroke-width:1.0;"/><polygon fill="#000000" points="890.38,680.6758,893.3189,671.6307,887.4411,671.6307,890.38,680.6758" style="stroke:#000000;stroke-width:1.0;"/><text fill="#000000" font-family="sans-serif" font-size="13" lengthAdjust="spacing" textLength="21" x="899.38" y="680.9951">has</text><text fill="#000000" font-family="sans-serif" font-size="13" lengthAdjust="spacing" textLength="7" x="878.1995" y="572.302">1</text><text fill="#000000" font-family="sans-serif" font-size="13" lengthAdjust="spacing" textLength="22" x="862.6753" y="789.2093">0..n</text></g><!--link users to movements--><g id="link_users_movements"><path codeLine="152" d="M1484.17,196.21 C1478.45,430.65 1462.76,1025.1 1450.38,1042 C1389.84,1124.69 1325.32,1074.72 1233.38,1120 C1227.49,1122.9 1221.57,1125.9 1215.64,1128.98 " fill="none" id="users-movements" style="stroke:#181818;stroke-width:1.0;"/><polygon fill="#000000" points="1477.9968,680.4806,1483.3233,672.6016,1477.6748,670.9755,1477.9968,680.4806" style="stroke:#000000;stroke-width:1.0;"/><text fill="#000000" font-family="sans-serif" font-size="13" lengthAdjust="spacing" textLength="43" x="1488.38" y="680.9951">records</text><text fill="#000000" font-family="sans-serif" font-size="13" lengthAdjust="spacing" textLength="7" x="1476.7507" y="217.2654">1</text><text fill="#000000" font-family="sans-serif" font-size="13" lengthAdjust="spacing" textLength="22" x="1222.9782" y="1121.6586">0..n</text></g><!--link wallets to movements--><g id="link_wallets_movements"><path codeLine="153" d="M1714.75,770.35 C1684.95,867.64 1623.61,1015.71 1512.38,1090 C1408.67,1159.27 1351.01,1078.56 1233.38,1120 C1227.46,1122.08 1221.54,1124.31 1215.63,1126.67 " fill="none" id="wallets-movements" style="stroke:#181818;stroke-width:1.0;"/><polygon fill="#000000" points="1705.3106,924.0809,1714.3798,921.2174,1710.9646,916.4335,1705.3106,924.0809" style="stroke:#000000;stroke-width:1.0;"/><text fill="#000000" font-family="sans-serif" font-size="13" lengthAdjust="spacing" textLength="45" x="1718.38" y="926.4951">used_in</text><text fill="#000000" font-family="sans-serif" font-size="13" lengthAdjust="spacing" textLength="7" x="1705.7576" y="791.4157">1</text><text fill="#000000" font-family="sans-serif" font-size="13" lengthAdjust="spacing" textLength="22" x="1222.9679" y="1135.7122">0..n</text></g><!--link buckets to movements--><g id="link_buckets_movements"><path codeLine="154" d="M304.11,498.1 C187.81,625.31 6,869.32 132.38,1042 C198.95,1132.96 472.6,1207.05 685.28,1252.44 " fill="none" id="buckets-movements" style="stroke:#181818;stroke-width:1.0;"/><polygon fill="#000000" points="139.635,925.6384,138.1788,916.24,132.9326,918.8909,139.635,925.6384" style="stroke:#000000;stroke-width:1.0;"/><text fill="#000000" font-family="sans-serif" font-size="13" lengthAdjust="spacing" textLength="84" x="146.38" y="926.4951">categorized_in</text><text fill="#000000" font-family="sans-serif" font-size="13" lengthAdjust="spacing" textLength="7" x="289.5673" y="519.6426">1</text><text fill="#000000" font-family="sans-serif" font-size="13" lengthAdjust="spacing" textLength="22" x="655.0833" y="1248.2171">0..n</text></g><!--link subcategories to movements--><g id="link_subcategories_movements"><path codeLine="155" d="M515.63,998.23 C517.64,1029.14 524.72,1063.68 543.38,1090 C579.19,1140.51 630.79,1179.84 685.29,1210.14 " fill="none" id="subcategories-movements" style="stroke:#181818;stroke-width:1.0;"/><polygon fill="#000000" points="551.505,1085.0789,548.1461,1076.1813,543.5576,1079.8549,551.505,1085.0789" style="stroke:#000000;stroke-width:1.0;"/><text fill="#000000" font-family="sans-serif" font-size="13" lengthAdjust="spacing" textLength="84" x="557.38" y="1086.4951">categorized_in</text><text fill="#000000" font-family="sans-serif" font-size="13" lengthAdjust="spacing" textLength="7" x="508.007" y="1019.0794">1</text><text fill="#000000" font-family="sans-serif" font-size="13" lengthAdjust="spacing" textLength="22" x="655.0936" y="1204.6614">0..n</text></g><!--link credit_cards to movements--><g id="link_credit_cards_movements"><path codeLine="156" d="M786.22,551.22 C706.2,680.29 617.4,877.47 686.38,1042 C697.94,1069.56 714,1095.67 732.56,1119.95 " fill="none" id="credit_cards-movements" style="stroke:#181818;stroke-width:1.0;"/><polygon fill="#000000" points="690.9103,926.1537,694.6859,917.4246,688.834,916.8725,690.9103,926.1537" style="stroke:#000000;stroke-width:1.0;"/><text fill="#000000" font-family="sans-serif" font-size="13" lengthAdjust="spacing" textLength="53" x="700.38" y="926.4951">card_ops</text><text fill="#000000" font-family="sans-serif" font-size="13" lengthAdjust="spacing" textLength="7" x="773.9266" y="572.2914">1</text><text fill="#000000" font-family="sans-serif" font-size="13" lengthAdjust="spacing" textLength="22" x="700.9067" y="1109.4144">0..n</text></g><!--link movements to movement_tag--><g id="link_movements_movement_tag"><path codeLine="157" d="M1059.66,1485.03 C1076.81,1513.54 1093.21,1540.78 1106.41,1562.71 " fill="none" id="movements-movement_tag" style="stroke:#181818;stroke-width:1.0;"/><polygon fill="#000000" points="1094.9582,1528.4598,1092.8122,1519.1945,1087.7761,1522.2254,1094.9582,1528.4598" style="stroke:#000000;stroke-width:1.0;"/><text fill="#000000" font-family="sans-serif" font-size="13" lengthAdjust="spacing" textLength="39" x="1101.38" y="1529.4951">tagged</text><text fill="#000000" font-family="sans-serif" font-size="13" lengthAdjust="spacing" textLength="7" x="1057.1226" y="1506.5712">1</text><text fill="#000000" font-family="sans-serif" font-size="13" lengthAdjust="spacing" textLength="22" x="1078.6486" y="1551.9746">0..n</text></g><!--link tags to movement_tag--><g id="link_tags_movement_tag"><path codeLine="158" d="M1300.69,1353.35 C1283.78,1390.58 1258.79,1442.2 1232.38,1485 C1215.87,1511.76 1195.13,1539.86 1177.15,1562.84 " fill="none" id="tags-movement_tag" style="stroke:#181818;stroke-width:1.0;"/><polygon fill="#000000" points="1213.8402,1528.4827,1220.9663,1522.1843,1215.9033,1519.1986,1213.8402,1528.4827" style="stroke:#000000;stroke-width:1.0;"/><text fill="#000000" font-family="sans-serif" font-size="13" lengthAdjust="spacing" textLength="69" x="1225.38" y="1529.4951">tagged_with</text><text fill="#000000" font-family="sans-serif" font-size="13" lengthAdjust="spacing" textLength="7" x="1290.4625" y="1374.4188">1</text><text fill="#000000" font-family="sans-serif" font-size="13" lengthAdjust="spacing" textLength="22" x="1159.3364" y="1552.1229">0..n</text></g><!--link shared_funds to shared_fund_members--><g id="link_shared_funds_shared_fund_members"><path codeLine="159" d="M1757.43,178.88 C1754.8,229.64 1751.38,295.66 1748.86,344.39 " fill="none" id="shared_funds-shared_fund_members" style="stroke:#181818;stroke-width:1.0;"/><polygon fill="#000000" points="1760.1214,240.1691,1763.5242,231.2881,1757.6542,230.9841,1760.1214,240.1691" style="stroke:#000000;stroke-width:1.0;"/><text fill="#000000" font-family="sans-serif" font-size="13" lengthAdjust="spacing" textLength="54" x="1769.38" y="240.4951">members</text><text fill="#000000" font-family="sans-serif" font-size="13" lengthAdjust="spacing" textLength="7" x="1749.7898" y="199.7423">1</text><text fill="#000000" font-family="sans-serif" font-size="13" lengthAdjust="spacing" textLength="22" x="1726.0375" y="333.5772">0..n</text></g><!--link users to shared_fund_members--><g id="link_users_shared_fund_members"><path codeLine="160" d="M1577.17,196.3 C1586.17,206.2 1595.05,216.22 1603.38,226 C1635.87,264.12 1670.06,308.63 1696.75,344.5 " fill="none" id="users-shared_fund_members" style="stroke:#181818;stroke-width:1.0;"/><polygon fill="#000000" points="1624.5198,239.067,1621.1271,230.1822,1616.5526,233.8732,1624.5198,239.067" style="stroke:#000000;stroke-width:1.0;"/><text fill="#000000" font-family="sans-serif" font-size="13" lengthAdjust="spacing" textLength="64" x="1630.38" y="240.4951">member_of</text><text fill="#000000" font-family="sans-serif" font-size="13" lengthAdjust="spacing" textLength="7" x="1576.5804" y="217.362">1</text><text fill="#000000" font-family="sans-serif" font-size="13" lengthAdjust="spacing" textLength="22" x="1668.228" y="333.6993">0..n</text></g><!--SRC=[jLZDRXit4BxhAGQwI6fbnSuVMY4ru3W94WH5YoJzkIr6t954cqjkIAuTfUa3zU0NwDKlrY5tLrefgxKJfuPXKPmPSkQRNte0pxMNVWNEhnJrtBdKELhCG2XqxiHxAsU5frV2wBVo8y5XhpU0tnnPruiSK8Gr_DK3_laUP0fJcCc5r1wUFFdrzV5n91mSn8_0gp4Zvhb0AvPeXqU7XwD8emobQX8ULOISRxaqDasMw9ODXlkF7fKCyqAfPFVOMbePWMhxmf8WBA6dD47Fn9INNcPKQfcdBPI_W-5_e5BauHwR61Pa4OOq9-7bXHb3UltFJ7fUY8AqHpUg8BgCKZU25D19jcalQje-rFmgR-u_E1m1380cYma8Xejr8bPf33FKvmaAOGhDtqg5IXWAQqcBLGj2CrIeHJW-9I4pLCEZX-FxTq3lQI7E0mwvbLh8dFtYOFZBJCa5UcCb0_V2wDJ02yoaacZ7SB8qrl8-UL63EQiE-H_0JCa9AtClZMQofmybH9mIwGx65SHzir6-F-vZr9ONyye0NYuAvqt_wp5xALquNXZMZd_dMAY0eB4L45ke96k66z2fsFVWG_Cof2cPMvDLAaKAPY60MYD26qzjsTbkTRJjRJ4JlB4mzleA7LnmL1GAKrvYxURAFBVcb7H7uxxG-L_bj9_D1MLS0ZYy2utWZ4BmEEE_eRQ2DnpaNkRHfvcva9baPhEk5zbQ_0v1NkPu2pKG1y18BaZVooYLfgE6ZMw1wCOvgtqiZ68gVIAGotYRHWFGNCGP8Pg2au2vaW8XW6RFo6CymvAAUDVej1t4TkM2FOWAXlc4pYOC-CB0-u90oVU5J164oNABNTMJmz1mZ7m2-f2JTc7bBMet9ylBQ4EEgw12_PKr84kkZ9Y0hDJDL8W5u_JaxKlcV_RywQjt_7dwvlcpL- -IqvCtpqg4mZd-GzAYqW3o8doBccnkhY_bfQKBRi9iz2UO4y5m3U7efgpjAFzx4Y94UhCaMEBHG4X5qHl6A48T2HaxZhcGjy-SqL-VJQSnU292d1lesEmgKHfXzQqR0gFU_rqwX0DuobtGm9ym_8v_Zku_U3ZgL_rHdxTLaWvCAuKLPtoxFy9S8VKYIJ68UwbNGTK1f-KLXceXZ6NuXo6oVwp7enWGILfGkvIwlkBRgCo4A5dTXLeNg1BBO2UvQEhpUFnWtUCUFvpySCZPPAm81U6CM8x5oYCoe_rIhJhEMESZn-Gi0fbRJk2gdSGkinCtTuqH42iH9ulwwcbPTRaSiZjA11tmm8igtTJSc7-Lv0sHr5tCIgSGJmHfuhX- -MQoLFiK1uhrBhFvigHrPEg6QJS3Iyzlx-KeqwxJ8drNgAueIOZPHKpesqv-qGdlSD60lKGzepDZ6VRPzR-Eot2wcOfzuFvsIHi6VjPYkuCcVCbDTtJqax99uAADL4umV3Ebz-AyjrhF-JoSBQmfSdwPwBI1I6svYr99IRr1kttlcdtZIcVj-TAy-apT9ADiTeltNbDa3wnThhL6VTu4pQME3RXKeJI9oqzydp8AzUpxMT16Hxq9mmDpkQNCNQzyi_QF-lmmXVxXPABxQ-TDmqKEZbkPwiV7cgdUQ6FRJEDJuEwzbtjxkArvswxVwdTh7RPsTmGQLQthuCt4EOqDFPnqtAiXsS_BPuNfPwzfJTxQne-roBRTNo3OOV2s71jlyc39PhkTFTQ9QKZrKFQEUx4stO8rkPH-6KnfPlIETrkoPmhrgjqTNJA9cRDKBpwtlCc1lwwjswfd3XO58r0-DnmeuvflZMdvVvdGbgk1zQVcJ0e7nxjzBgKP0OMMnYsS79z2rHbjapbtkZXra5RuCOZmz17UTUNuxNgX1GORjYrfUdQtrsxiGOTkN8r2gtg-SPFD75r5VCLFYZLq1MiMtysisVLLU84DrorrDDdeyny0]--></g></svg>