<?xml version="1.0" encoding="us-ascii" standalone="no"?><svg xmlns="http://www.w3.org/2000/svg" xmlns:xlink="http://www.w3.org/1999/xlink" contentStyleType="text/css" height="1427px" preserveAspectRatio="none" style="width:1307px;height:1427px;background:#FFFFFF;" version="1.1" viewBox="0 0 1307 1427" width="1307px" zoomAndPan="magnify"><defs/><g><!--class users--><g id="elem_users"><rect codeLine="4" fill="#F1F1F1" height="188.875" id="users" rx="2.5" ry="2.5" style="stroke:#181818;stroke-width:0.5;" width="205" x="458.36" y="7"/><ellipse cx="539.11" cy="23" fill="#ADD1B2" rx="11" ry="11" style="stroke:#181818;stroke-width:1.0;"/><path d="M541.8756,18.875 Q542.0319,18.6563 542.2194,18.5469 Q542.4069,18.4375 542.6256,18.4375 Q543.0006,18.4375 543.235,18.7031 Q543.4694,18.9531 543.4694,19.5625 L543.4694,21.0156 Q543.4694,21.625 543.235,21.8906 Q543.0006,22.1563 542.6256,22.1563 Q542.2819,22.1563 542.0788,21.9531 Q541.8756,21.7656 541.7663,21.25 Q541.7194,20.8906 541.5319,20.7031 Q541.2038,20.3281 540.5944,20.1094 Q539.985,19.8906 539.36,19.8906 Q538.5944,19.8906 537.9538,20.2188 Q537.3288,20.5469 536.8288,21.2969 Q536.3444,22.0469 536.3444,23.0781 L536.3444,24.1719 Q536.3444,25.4063 537.235,26.2344 Q538.1256,27.0469 539.7194,27.0469 Q540.6569,27.0469 541.3131,26.7969 Q541.7038,26.6406 542.1256,26.2031 Q542.3913,25.9375 542.5319,25.8594 Q542.6881,25.7813 542.8913,25.7813 Q543.2194,25.7813 543.4694,26.0469 Q543.735,26.2969 543.735,26.6406 Q543.735,26.9844 543.3913,27.3906 Q542.8913,27.9688 542.0944,28.2969 Q541.0163,28.75 539.7194,28.75 Q538.2038,28.75 537.0006,28.125 Q536.0163,27.625 535.3288,26.5625 Q534.6413,25.4844 534.6413,24.2031 L534.6413,23.0469 Q534.6413,21.7188 535.2506,20.5781 Q535.8756,19.4219 536.9694,18.8125 Q538.0631,18.1875 539.2975,18.1875 Q540.0319,18.1875 540.6725,18.3594 Q541.3288,18.5156 541.8756,18.875 Z " fill="#000000"/><text fill="#000000" font-family="sans-serif" font-size="14" lengthAdjust="spacing" textLength="35" x="559.61" y="28.7285">users</text><line style="stroke:#181818;stroke-width:0.5;" x1="459.36" x2="662.36" y1="39" y2="39"/><text fill="#000000" font-family="sans-serif" font-size="14" lengthAdjust="spacing" textLength="103" x="464.36" y="57.5332">+id : bigint &#171;PK&#187;</text><line style="stroke:#181818;stroke-width:1.0;" x1="459.36" x2="662.36" y1="64.6094" y2="64.6094"/><text fill="#000000" font-family="sans-serif" font-size="14" lengthAdjust="spacing" textLength="157" x="464.36" y="83.1426">username : varchar(100)</text><text fill="#000000" font-family="sans-serif" font-size="14" lengthAdjust="spacing" textLength="127" x="464.36" y="100.752">email : varchar(150)</text><text fill="#000000" font-family="sans-serif" font-size="14" lengthAdjust="spacing" textLength="193" x="464.36" y="118.3613">password_hash : varchar(255)</text><text fill="#000000" font-family="sans-serif" font-size="14" lengthAdjust="spacing" textLength="155" x="464.36" y="135.9707">full_name : varchar(150)</text><text fill="#000000" font-family="sans-serif" font-size="14" lengthAdjust="spacing" textLength="123" x="464.36" y="153.5801">locale : varchar(10)</text><text fill="#000000" font-family="sans-serif" font-size="14" lengthAdjust="spacing" textLength="134" x="464.36" y="171.1895">created_at : datetime</text><text fill="#000000" font-family="sans-serif" font-size="14" lengthAdjust="spacing" textLength="138" x="464.36" y="188.7988">updated_at : datetime</text></g><!--class wallets--><g id="elem_wallets"><rect codeLine="17" fill="#F1F1F1" height="188.875" id="wallets" rx="2.5" ry="2.5" style="stroke:#181818;stroke-width:0.5;" width="160" x="57.86" y="300"/><ellipse cx="112.61" cy="316" fill="#ADD1B2" rx="11" ry="11" style="stroke:#181818;stroke-width:1.0;"/><path d="M115.3756,311.875 Q115.5319,311.6563 115.7194,311.5469 Q115.9069,311.4375 116.1256,311.4375 Q116.5006,311.4375 116.735,311.7031 Q116.9694,311.9531 116.9694,312.5625 L116.9694,314.0156 Q116.9694,314.625 116.735,314.8906 Q116.5006,315.1563 116.1256,315.1563 Q115.7819,315.1563 115.5788,314.9531 Q115.3756,314.7656 115.2663,314.25 Q115.2194,313.8906 115.0319,313.7031 Q114.7038,313.3281 114.0944,313.1094 Q113.485,312.8906 112.86,312.8906 Q112.0944,312.8906 111.4538,313.2188 Q110.8288,313.5469 110.3288,314.2969 Q109.8444,315.0469 109.8444,316.0781 L109.8444,317.1719 Q109.8444,318.4063 110.735,319.2344 Q111.6256,320.0469 113.2194,320.0469 Q114.1569,320.0469 114.8131,319.7969 Q115.2038,319.6406 115.6256,319.2031 Q115.8913,318.9375 116.0319,318.8594 Q116.1881,318.7813 116.3913,318.7813 Q116.7194,318.7813 116.9694,319.0469 Q117.235,319.2969 117.235,319.6406 Q117.235,319.9844 116.8913,320.3906 Q116.3913,320.9688 115.5944,321.2969 Q114.5163,321.75 113.2194,321.75 Q111.7038,321.75 110.5006,321.125 Q109.5163,320.625 108.8288,319.5625 Q108.1413,318.4844 108.1413,317.2031 L108.1413,316.0469 Q108.1413,314.7188 108.7506,313.5781 Q109.3756,312.4219 110.4694,311.8125 Q111.5631,311.1875 112.7975,311.1875 Q113.5319,311.1875 114.1725,311.3594 Q114.8288,311.5156 115.3756,311.875 Z " fill="#000000"/><text fill="#000000" font-family="sans-serif" font-size="14" lengthAdjust="spacing" textLength="42" x="133.11" y="321.7285">wallets</text><line style="stroke:#181818;stroke-width:0.5;" x1="58.86" x2="216.86" y1="332" y2="332"/><text fill="#000000" font-family="sans-serif" font-size="14" lengthAdjust="spacing" textLength="103" x="63.86" y="350.5332">+id : bigint &#171;PK&#187;</text><text fill="#000000" font-family="sans-serif" font-size="14" lengthAdjust="spacing" textLength="131" x="63.86" y="368.1426">user_id : bigint &#171;FK&#187;</text><text fill="#000000" font-family="sans-serif" font-size="14" lengthAdjust="spacing" textLength="134" x="63.86" y="385.752">created_at : datetime</text><text fill="#000000" font-family="sans-serif" font-size="14" lengthAdjust="spacing" textLength="138" x="63.86" y="403.3613">updated_at : datetime</text><line style="stroke:#181818;stroke-width:0.5;" x1="58.86" x2="216.86" y1="410.4375" y2="410.4375"/><text fill="#000000" font-family="sans-serif" font-size="14" lengthAdjust="spacing" textLength="129" x="63.86" y="428.9707">name : varchar(100)</text><text fill="#000000" font-family="sans-serif" font-size="14" lengthAdjust="spacing" textLength="113" x="63.86" y="446.5801">type : varchar(30)</text><text fill="#000000" font-family="sans-serif" font-size="14" lengthAdjust="spacing" textLength="141" x="63.86" y="464.1895">currency : varchar(10)</text><text fill="#000000" font-family="sans-serif" font-size="14" lengthAdjust="spacing" textLength="148" x="63.86" y="481.7988">balance : decimal(14,2)</text></g><!--class buckets--><g id="elem_buckets"><rect codeLine="29" fill="#F1F1F1" height="171.2656" id="buckets" rx="2.5" ry="2.5" style="stroke:#181818;stroke-width:0.5;" width="150" x="319.86" y="309"/><ellipse cx="366.11" cy="325" fill="#ADD1B2" rx="11" ry="11" style="stroke:#181818;stroke-width:1.0;"/><path d="M368.8756,320.875 Q369.0319,320.6563 369.2194,320.5469 Q369.4069,320.4375 369.6256,320.4375 Q370.0006,320.4375 370.235,320.7031 Q370.4694,320.9531 370.4694,321.5625 L370.4694,323.0156 Q370.4694,323.625 370.235,323.8906 Q370.0006,324.1563 369.6256,324.1563 Q369.2819,324.1563 369.0788,323.9531 Q368.8756,323.7656 368.7663,323.25 Q368.7194,322.8906 368.5319,322.7031 Q368.2038,322.3281 367.5944,322.1094 Q366.985,321.8906 366.36,321.8906 Q365.5944,321.8906 364.9538,322.2188 Q364.3288,322.5469 363.8288,323.2969 Q363.3444,324.0469 363.3444,325.0781 L363.3444,326.1719 Q363.3444,327.4063 364.235,328.2344 Q365.1256,329.0469 366.7194,329.0469 Q367.6569,329.0469 368.3131,328.7969 Q368.7038,328.6406 369.1256,328.2031 Q369.3913,327.9375 369.5319,327.8594 Q369.6881,327.7813 369.8913,327.7813 Q370.2194,327.7813 370.4694,328.0469 Q370.735,328.2969 370.735,328.6406 Q370.735,328.9844 370.3913,329.3906 Q369.8913,329.9688 369.0944,330.2969 Q368.0163,330.75 366.7194,330.75 Q365.2038,330.75 364.0006,330.125 Q363.0163,329.625 362.3288,328.5625 Q361.6413,327.4844 361.6413,326.2031 L361.6413,325.0469 Q361.6413,323.7188 362.2506,322.5781 Q362.8756,321.4219 363.9694,320.8125 Q365.0631,320.1875 366.2975,320.1875 Q367.0319,320.1875 367.6725,320.3594 Q368.3288,320.5156 368.8756,320.875 Z " fill="#000000"/><text fill="#000000" font-family="sans-serif" font-size="14" lengthAdjust="spacing" textLength="49" x="386.61" y="330.7285">buckets</text><line style="stroke:#181818;stroke-width:0.5;" x1="320.86" x2="468.86" y1="341" y2="341"/><text fill="#000000" font-family="sans-serif" font-size="14" lengthAdjust="spacing" textLength="103" x="325.86" y="359.5332">+id : bigint &#171;PK&#187;</text><text fill="#000000" font-family="sans-serif" font-size="14" lengthAdjust="spacing" textLength="131" x="325.86" y="377.1426">user_id : bigint &#171;FK&#187;</text><text fill="#000000" font-family="sans-serif" font-size="14" lengthAdjust="spacing" textLength="103" x="325.86" y="394.752">description : text</text><text fill="#000000" font-family="sans-serif" font-size="14" lengthAdjust="spacing" textLength="134" x="325.86" y="412.3613">created_at : datetime</text><text fill="#000000" font-family="sans-serif" font-size="14" lengthAdjust="spacing" textLength="138" x="325.86" y="429.9707">updated_at : datetime</text><line style="stroke:#181818;stroke-width:0.5;" x1="320.86" x2="468.86" y1="437.0469" y2="437.0469"/><text fill="#000000" font-family="sans-serif" font-size="14" lengthAdjust="spacing" textLength="129" x="325.86" y="455.5801">name : varchar(100)</text><text fill="#000000" font-family="sans-serif" font-size="14" lengthAdjust="spacing" textLength="112" x="325.86" y="473.1895">kind : varchar(30)</text></g><!--class bucket_defaults--><g id="elem_bucket_defaults"><rect codeLine="40" fill="#F1F1F1" height="153.6563" id="bucket_defaults" rx="2.5" ry="2.5" style="stroke:#181818;stroke-width:0.5;" width="157" x="87.36" y="637"/><ellipse cx="113.61" cy="653" fill="#ADD1B2" rx="11" ry="11" style="stroke:#181818;stroke-width:1.0;"/><path d="M116.3756,648.875 Q116.5319,648.6563 116.7194,648.5469 Q116.9069,648.4375 117.1256,648.4375 Q117.5006,648.4375 117.735,648.7031 Q117.9694,648.9531 117.9694,649.5625 L117.9694,651.0156 Q117.9694,651.625 117.735,651.8906 Q117.5006,652.1563 117.1256,652.1563 Q116.7819,652.1563 116.5788,651.9531 Q116.3756,651.7656 116.2663,651.25 Q116.2194,650.8906 116.0319,650.7031 Q115.7038,650.3281 115.0944,650.1094 Q114.485,649.8906 113.86,649.8906 Q113.0944,649.8906 112.4538,650.2188 Q111.8288,650.5469 111.3288,651.2969 Q110.8444,652.0469 110.8444,653.0781 L110.8444,654.1719 Q110.8444,655.4063 111.735,656.2344 Q112.6256,657.0469 114.2194,657.0469 Q115.1569,657.0469 115.8131,656.7969 Q116.2038,656.6406 116.6256,656.2031 Q116.8913,655.9375 117.0319,655.8594 Q117.1881,655.7813 117.3913,655.7813 Q117.7194,655.7813 117.9694,656.0469 Q118.235,656.2969 118.235,656.6406 Q118.235,656.9844 117.8913,657.3906 Q117.3913,657.9688 116.5944,658.2969 Q115.5163,658.75 114.2194,658.75 Q112.7038,658.75 111.5006,658.125 Q110.5163,657.625 109.8288,656.5625 Q109.1413,655.4844 109.1413,654.2031 L109.1413,653.0469 Q109.1413,651.7188 109.7506,650.5781 Q110.3756,649.4219 111.4694,648.8125 Q112.5631,648.1875 113.7975,648.1875 Q114.5319,648.1875 115.1725,648.3594 Q115.8288,648.5156 116.3756,648.875 Z " fill="#000000"/><text fill="#000000" font-family="sans-serif" font-size="14" lengthAdjust="spacing" textLength="100" x="130.11" y="658.7285">bucket_defaults</text><line style="stroke:#181818;stroke-width:0.5;" x1="88.36" x2="243.36" y1="669" y2="669"/><text fill="#000000" font-family="sans-serif" font-size="14" lengthAdjust="spacing" textLength="103" x="93.36" y="687.5332">+id : bigint &#171;PK&#187;</text><text fill="#000000" font-family="sans-serif" font-size="14" lengthAdjust="spacing" textLength="145" x="93.36" y="705.1426">bucket_id : bigint &#171;FK&#187;</text><text fill="#000000" font-family="sans-serif" font-size="14" lengthAdjust="spacing" textLength="129" x="93.36" y="722.752">effective_from : date</text><text fill="#000000" font-family="sans-serif" font-size="14" lengthAdjust="spacing" textLength="134" x="93.36" y="740.3613">created_at : datetime</text><line style="stroke:#181818;stroke-width:0.5;" x1="88.36" x2="243.36" y1="747.4375" y2="747.4375"/><text fill="#000000" font-family="sans-serif" font-size="14" lengthAdjust="spacing" textLength="145" x="93.36" y="765.9707">amount : decimal(14,2)</text><text fill="#000000" font-family="sans-serif" font-size="14" lengthAdjust="spacing" textLength="122" x="93.36" y="783.5801">note : varchar(255)</text></g><!--class subcategories--><g id="elem_subcategories"><rect codeLine="50" fill="#F1F1F1" height="153.6563" id="subcategories" rx="2.5" ry="2.5" style="stroke:#181818;stroke-width:0.5;" width="157" x="279.36" y="637"/><ellipse cx="310.56" cy="653" fill="#ADD1B2" rx="11" ry="11" style="stroke:#181818;stroke-width:1.0;"/><path d="M313.3256,648.875 Q313.4819,648.6563 313.6694,648.5469 Q313.8569,648.4375 314.0756,648.4375 Q314.4506,648.4375 314.685,648.7031 Q314.9194,648.9531 314.9194,649.5625 L314.9194,651.0156 Q314.9194,651.625 314.685,651.8906 Q314.4506,652.1563 314.0756,652.1563 Q313.7319,652.1563 313.5288,651.9531 Q313.3256,651.7656 313.2163,651.25 Q313.1694,650.8906 312.9819,650.7031 Q312.6538,650.3281 312.0444,650.1094 Q311.435,649.8906 310.81,649.8906 Q310.0444,649.8906 309.4038,650.2188 Q308.7788,650.5469 308.2788,651.2969 Q307.7944,652.0469 307.7944,653.0781 L307.7944,654.1719 Q307.7944,655.4063 308.685,656.2344 Q309.5756,657.0469 311.1694,657.0469 Q312.1069,657.0469 312.7631,656.7969 Q313.1538,656.6406 313.5756,656.2031 Q313.8413,655.9375 313.9819,655.8594 Q314.1381,655.7813 314.3413,655.7813 Q314.6694,655.7813 314.9194,656.0469 Q315.185,656.2969 315.185,656.6406 Q315.185,656.9844 314.8413,657.3906 Q314.3413,657.9688 313.5444,658.2969 Q312.4663,658.75 311.1694,658.75 Q309.6538,658.75 308.4506,658.125 Q307.4663,657.625 306.7788,656.5625 Q306.0913,655.4844 306.0913,654.2031 L306.0913,653.0469 Q306.0913,651.7188 306.7006,650.5781 Q307.3256,649.4219 308.4194,648.8125 Q309.5131,648.1875 310.7475,648.1875 Q311.4819,648.1875 312.1225,648.3594 Q312.7788,648.5156 313.3256,648.875 Z " fill="#000000"/><text fill="#000000" font-family="sans-serif" font-size="14" lengthAdjust="spacing" textLength="89" x="328.16" y="658.7285">subcategories</text><line style="stroke:#181818;stroke-width:0.5;" x1="280.36" x2="435.36" y1="669" y2="669"/><text fill="#000000" font-family="sans-serif" font-size="14" lengthAdjust="spacing" textLength="103" x="285.36" y="687.5332">+id : bigint &#171;PK&#187;</text><text fill="#000000" font-family="sans-serif" font-size="14" lengthAdjust="spacing" textLength="145" x="285.36" y="705.1426">bucket_id : bigint &#171;FK&#187;</text><text fill="#000000" font-family="sans-serif" font-size="14" lengthAdjust="spacing" textLength="103" x="285.36" y="722.752">description : text</text><text fill="#000000" font-family="sans-serif" font-size="14" lengthAdjust="spacing" textLength="134" x="285.36" y="740.3613">created_at : datetime</text><text fill="#000000" font-family="sans-serif" font-size="14" lengthAdjust="spacing" textLength="138" x="285.36" y="757.9707">updated_at : datetime</text><line style="stroke:#181818;stroke-width:0.5;" x1="280.36" x2="435.36" y1="765.0469" y2="765.0469"/><text fill="#000000" font-family="sans-serif" font-size="14" lengthAdjust="spacing" textLength="129" x="285.36" y="783.5801">name : varchar(100)</text></g><!--class transactions--><g id="elem_transactions"><rect codeLine="60" fill="#F1F1F1" height="364.9688" id="transactions" rx="2.5" ry="2.5" style="stroke:#181818;stroke-width:0.5;" width="237" x="406.36" y="895"/><ellipse cx="482.11" cy="911" fill="#ADD1B2" rx="11" ry="11" style="stroke:#181818;stroke-width:1.0;"/><path d="M484.8756,906.875 Q485.0319,906.6563 485.2194,906.5469 Q485.4069,906.4375 485.6256,906.4375 Q486.0006,906.4375 486.235,906.7031 Q486.4694,906.9531 486.4694,907.5625 L486.4694,909.0156 Q486.4694,909.625 486.235,909.8906 Q486.0006,910.1563 485.6256,910.1563 Q485.2819,910.1563 485.0788,909.9531 Q484.8756,909.7656 484.7663,909.25 Q484.7194,908.8906 484.5319,908.7031 Q484.2038,908.3281 483.5944,908.1094 Q482.985,907.8906 482.36,907.8906 Q481.5944,907.8906 480.9538,908.2188 Q480.3288,908.5469 479.8288,909.2969 Q479.3444,910.0469 479.3444,911.0781 L479.3444,912.1719 Q479.3444,913.4063 480.235,914.2344 Q481.1256,915.0469 482.7194,915.0469 Q483.6569,915.0469 484.3131,914.7969 Q484.7038,914.6406 485.1256,914.2031 Q485.3913,913.9375 485.5319,913.8594 Q485.6881,913.7813 485.8913,913.7813 Q486.2194,913.7813 486.4694,914.0469 Q486.735,914.2969 486.735,914.6406 Q486.735,914.9844 486.3913,915.3906 Q485.8913,915.9688 485.0944,916.2969 Q484.0163,916.75 482.7194,916.75 Q481.2038,916.75 480.0006,916.125 Q479.0163,915.625 478.3288,914.5625 Q477.6413,913.4844 477.6413,912.2031 L477.6413,911.0469 Q477.6413,909.7188 478.2506,908.5781 Q478.8756,907.4219 479.9694,906.8125 Q481.0631,906.1875 482.2975,906.1875 Q483.0319,906.1875 483.6725,906.3594 Q484.3288,906.5156 484.8756,906.875 Z " fill="#000000"/><text fill="#000000" font-family="sans-serif" font-size="14" lengthAdjust="spacing" textLength="77" x="502.61" y="916.7285">transactions</text><line style="stroke:#181818;stroke-width:0.5;" x1="407.36" x2="642.36" y1="927" y2="927"/><text fill="#000000" font-family="sans-serif" font-size="14" lengthAdjust="spacing" textLength="103" x="412.36" y="945.5332">+id : bigint &#171;PK&#187;</text><text fill="#000000" font-family="sans-serif" font-size="14" lengthAdjust="spacing" textLength="131" x="412.36" y="963.1426">user_id : bigint &#171;FK&#187;</text><text fill="#000000" font-family="sans-serif" font-size="14" lengthAdjust="spacing" textLength="138" x="412.36" y="980.752">wallet_id : bigint &#171;FK&#187;</text><text fill="#000000" font-family="sans-serif" font-size="14" lengthAdjust="spacing" textLength="145" x="412.36" y="998.3613">bucket_id : bigint &#171;FK&#187;</text><text fill="#000000" font-family="sans-serif" font-size="14" lengthAdjust="spacing" textLength="181" x="412.36" y="1015.9707">subcategory_id : bigint &#171;FK&#187;</text><text fill="#000000" font-family="sans-serif" font-size="14" lengthAdjust="spacing" textLength="174" x="412.36" y="1033.5801">credit_card_id : bigint &#171;FK&#187;</text><text fill="#000000" font-family="sans-serif" font-size="14" lengthAdjust="spacing" textLength="225" x="412.36" y="1051.1895">related_transaction_id : bigint &#171;FK&#187;</text><text fill="#000000" font-family="sans-serif" font-size="14" lengthAdjust="spacing" textLength="103" x="412.36" y="1068.7988">description : text</text><text fill="#000000" font-family="sans-serif" font-size="14" lengthAdjust="spacing" textLength="68" x="412.36" y="1086.4082">date : date</text><text fill="#000000" font-family="sans-serif" font-size="14" lengthAdjust="spacing" textLength="128" x="412.36" y="1104.0176">reconciled : boolean</text><text fill="#000000" font-family="sans-serif" font-size="14" lengthAdjust="spacing" textLength="97" x="412.36" y="1121.627">metadata : json</text><text fill="#000000" font-family="sans-serif" font-size="14" lengthAdjust="spacing" textLength="134" x="412.36" y="1139.2363">created_at : datetime</text><text fill="#000000" font-family="sans-serif" font-size="14" lengthAdjust="spacing" textLength="138" x="412.36" y="1156.8457">updated_at : datetime</text><line style="stroke:#181818;stroke-width:0.5;" x1="407.36" x2="642.36" y1="1163.9219" y2="1163.9219"/><text fill="#000000" font-family="sans-serif" font-size="14" lengthAdjust="spacing" textLength="113" x="412.36" y="1182.4551">type : varchar(30)</text><text fill="#000000" font-family="sans-serif" font-size="14" lengthAdjust="spacing" textLength="121" x="412.36" y="1200.0645">origin : varchar(20)</text><text fill="#000000" font-family="sans-serif" font-size="14" lengthAdjust="spacing" textLength="167" x="412.36" y="1217.6738">card_tx_type : varchar(30)</text><text fill="#000000" font-family="sans-serif" font-size="14" lengthAdjust="spacing" textLength="145" x="412.36" y="1235.2832">amount : decimal(14,2)</text><text fill="#000000" font-family="sans-serif" font-size="14" lengthAdjust="spacing" textLength="141" x="412.36" y="1252.8926">currency : varchar(10)</text></g><!--class credit_cards--><g id="elem_credit_cards"><rect codeLine="82" fill="#F1F1F1" height="276.9219" id="credit_cards" rx="2.5" ry="2.5" style="stroke:#181818;stroke-width:0.5;" width="211" x="614.36" y="256"/><ellipse cx="676.61" cy="272" fill="#ADD1B2" rx="11" ry="11" style="stroke:#181818;stroke-width:1.0;"/><path d="M679.3756,267.875 Q679.5319,267.6563 679.7194,267.5469 Q679.9069,267.4375 680.1256,267.4375 Q680.5006,267.4375 680.735,267.7031 Q680.9694,267.9531 680.9694,268.5625 L680.9694,270.0156 Q680.9694,270.625 680.735,270.8906 Q680.5006,271.1563 680.1256,271.1563 Q679.7819,271.1563 679.5788,270.9531 Q679.3756,270.7656 679.2663,270.25 Q679.2194,269.8906 679.0319,269.7031 Q678.7038,269.3281 678.0944,269.1094 Q677.485,268.8906 676.86,268.8906 Q676.0944,268.8906 675.4538,269.2188 Q674.8288,269.5469 674.3288,270.2969 Q673.8444,271.0469 673.8444,272.0781 L673.8444,273.1719 Q673.8444,274.4063 674.735,275.2344 Q675.6256,276.0469 677.2194,276.0469 Q678.1569,276.0469 678.8131,275.7969 Q679.2038,275.6406 679.6256,275.2031 Q679.8913,274.9375 680.0319,274.8594 Q680.1881,274.7813 680.3913,274.7813 Q680.7194,274.7813 680.9694,275.0469 Q681.235,275.2969 681.235,275.6406 Q681.235,275.9844 680.8913,276.3906 Q680.3913,276.9688 679.5944,277.2969 Q678.5163,277.75 677.2194,277.75 Q675.7038,277.75 674.5006,277.125 Q673.5163,276.625 672.8288,275.5625 Q672.1413,274.4844 672.1413,273.2031 L672.1413,272.0469 Q672.1413,270.7188 672.7506,269.5781 Q673.3756,268.4219 674.4694,267.8125 Q675.5631,267.1875 676.7975,267.1875 Q677.5319,267.1875 678.1725,267.3594 Q678.8288,267.5156 679.3756,267.875 Z " fill="#000000"/><text fill="#000000" font-family="sans-serif" font-size="14" lengthAdjust="spacing" textLength="78" x="697.11" y="277.7285">credit_cards</text><line style="stroke:#181818;stroke-width:0.5;" x1="615.36" x2="824.36" y1="288" y2="288"/><text fill="#000000" font-family="sans-serif" font-size="14" lengthAdjust="spacing" textLength="103" x="620.36" y="306.5332">+id : bigint &#171;PK&#187;</text><text fill="#000000" font-family="sans-serif" font-size="14" lengthAdjust="spacing" textLength="131" x="620.36" y="324.1426">user_id : bigint &#171;FK&#187;</text><text fill="#000000" font-family="sans-serif" font-size="14" lengthAdjust="spacing" textLength="116" x="620.36" y="341.752">billing_day : tinyint</text><text fill="#000000" font-family="sans-serif" font-size="14" lengthAdjust="spacing" textLength="166" x="620.36" y="359.3613">payment_due_day : tinyint</text><text fill="#000000" font-family="sans-serif" font-size="14" lengthAdjust="spacing" textLength="100" x="620.36" y="376.9707">active : boolean</text><text fill="#000000" font-family="sans-serif" font-size="14" lengthAdjust="spacing" textLength="134" x="620.36" y="394.5801">created_at : datetime</text><text fill="#000000" font-family="sans-serif" font-size="14" lengthAdjust="spacing" textLength="138" x="620.36" y="412.1895">updated_at : datetime</text><line style="stroke:#181818;stroke-width:0.5;" x1="615.36" x2="824.36" y1="419.2656" y2="419.2656"/><text fill="#000000" font-family="sans-serif" font-size="14" lengthAdjust="spacing" textLength="129" x="620.36" y="437.7988">name : varchar(100)</text><text fill="#000000" font-family="sans-serif" font-size="14" lengthAdjust="spacing" textLength="125" x="620.36" y="455.4082">bank : varchar(100)</text><text fill="#000000" font-family="sans-serif" font-size="14" lengthAdjust="spacing" textLength="141" x="620.36" y="473.0176">currency : varchar(10)</text><text fill="#000000" font-family="sans-serif" font-size="14" lengthAdjust="spacing" textLength="165" x="620.36" y="490.627">credit_limit : decimal(14,2)</text><text fill="#000000" font-family="sans-serif" font-size="14" lengthAdjust="spacing" textLength="193" x="620.36" y="508.2363">annual_rate_pct : decimal(6,3)</text><text fill="#000000" font-family="sans-serif" font-size="14" lengthAdjust="spacing" textLength="199" x="620.36" y="525.8457">monthly_rate_pct : decimal(6,3)</text></g><!--class card_cycles--><g id="elem_card_cycles"><rect codeLine="99" fill="#F1F1F1" height="241.7031" id="card_cycles" rx="2.5" ry="2.5" style="stroke:#181818;stroke-width:0.5;" width="227" x="685.36" y="593"/><ellipse cx="757.11" cy="609" fill="#ADD1B2" rx="11" ry="11" style="stroke:#181818;stroke-width:1.0;"/><path d="M759.8756,604.875 Q760.0319,604.6563 760.2194,604.5469 Q760.4069,604.4375 760.6256,604.4375 Q761.0006,604.4375 761.235,604.7031 Q761.4694,604.9531 761.4694,605.5625 L761.4694,607.0156 Q761.4694,607.625 761.235,607.8906 Q761.0006,608.1563 760.6256,608.1563 Q760.2819,608.1563 760.0788,607.9531 Q759.8756,607.7656 759.7663,607.25 Q759.7194,606.8906 759.5319,606.7031 Q759.2038,606.3281 758.5944,606.1094 Q757.985,605.8906 757.36,605.8906 Q756.5944,605.8906 755.9538,606.2188 Q755.3288,606.5469 754.8288,607.2969 Q754.3444,608.0469 754.3444,609.0781 L754.3444,610.1719 Q754.3444,611.4063 755.235,612.2344 Q756.1256,613.0469 757.7194,613.0469 Q758.6569,613.0469 759.3131,612.7969 Q759.7038,612.6406 760.1256,612.2031 Q760.3913,611.9375 760.5319,611.8594 Q760.6881,611.7813 760.8913,611.7813 Q761.2194,611.7813 761.4694,612.0469 Q761.735,612.2969 761.735,612.6406 Q761.735,612.9844 761.3913,613.3906 Q760.8913,613.9688 760.0944,614.2969 Q759.0163,614.75 757.7194,614.75 Q756.2038,614.75 755.0006,614.125 Q754.0163,613.625 753.3288,612.5625 Q752.6413,611.4844 752.6413,610.2031 L752.6413,609.0469 Q752.6413,607.7188 753.2506,606.5781 Q753.8756,605.4219 754.9694,604.8125 Q756.0631,604.1875 757.2975,604.1875 Q758.0319,604.1875 758.6725,604.3594 Q759.3288,604.5156 759.8756,604.875 Z " fill="#000000"/><text fill="#000000" font-family="sans-serif" font-size="14" lengthAdjust="spacing" textLength="75" x="777.61" y="614.7285">card_cycles</text><line style="stroke:#181818;stroke-width:0.5;" x1="686.36" x2="911.36" y1="625" y2="625"/><text fill="#000000" font-family="sans-serif" font-size="14" lengthAdjust="spacing" textLength="103" x="691.36" y="643.5332">+id : bigint &#171;PK&#187;</text><text fill="#000000" font-family="sans-serif" font-size="14" lengthAdjust="spacing" textLength="174" x="691.36" y="661.1426">credit_card_id : bigint &#171;FK&#187;</text><text fill="#000000" font-family="sans-serif" font-size="14" lengthAdjust="spacing" textLength="116" x="691.36" y="678.752">period_start : date</text><text fill="#000000" font-family="sans-serif" font-size="14" lengthAdjust="spacing" textLength="112" x="691.36" y="696.3613">period_end : date</text><text fill="#000000" font-family="sans-serif" font-size="14" lengthAdjust="spacing" textLength="138" x="691.36" y="713.9707">statement_date : date</text><text fill="#000000" font-family="sans-serif" font-size="14" lengthAdjust="spacing" textLength="100" x="691.36" y="731.5801">due_date : date</text><text fill="#000000" font-family="sans-serif" font-size="14" lengthAdjust="spacing" textLength="103" x="691.36" y="749.1895">paid_date : date</text><text fill="#000000" font-family="sans-serif" font-size="14" lengthAdjust="spacing" textLength="134" x="691.36" y="766.7988">created_at : datetime</text><line style="stroke:#181818;stroke-width:0.5;" x1="686.36" x2="911.36" y1="773.875" y2="773.875"/><text fill="#000000" font-family="sans-serif" font-size="14" lengthAdjust="spacing" textLength="215" x="691.36" y="792.4082">statement_amount : decimal(14,2)</text><text fill="#000000" font-family="sans-serif" font-size="14" lengthAdjust="spacing" textLength="180" x="691.36" y="810.0176">paid_amount : decimal(14,2)</text><text fill="#000000" font-family="sans-serif" font-size="14" lengthAdjust="spacing" textLength="205" x="691.36" y="827.627">interest_charged : decimal(14,2)</text></g><!--class tags--><g id="elem_tags"><rect codeLine="114" fill="#F1F1F1" height="100.8281" id="tags" rx="2.5" ry="2.5" style="stroke:#181818;stroke-width:0.5;" width="143" x="678.36" y="1027"/><ellipse cx="732.11" cy="1043" fill="#ADD1B2" rx="11" ry="11" style="stroke:#181818;stroke-width:1.0;"/><path d="M734.8756,1038.875 Q735.0319,1038.6563 735.2194,1038.5469 Q735.4069,1038.4375 735.6256,1038.4375 Q736.0006,1038.4375 736.235,1038.7031 Q736.4694,1038.9531 736.4694,1039.5625 L736.4694,1041.0156 Q736.4694,1041.625 736.235,1041.8906 Q736.0006,1042.1563 735.6256,1042.1563 Q735.2819,1042.1563 735.0788,1041.9531 Q734.8756,1041.7656 734.7663,1041.25 Q734.7194,1040.8906 734.5319,1040.7031 Q734.2038,1040.3281 733.5944,1040.1094 Q732.985,1039.8906 732.36,1039.8906 Q731.5944,1039.8906 730.9538,1040.2188 Q730.3288,1040.5469 729.8288,1041.2969 Q729.3444,1042.0469 729.3444,1043.0781 L729.3444,1044.1719 Q729.3444,1045.4063 730.235,1046.2344 Q731.1256,1047.0469 732.7194,1047.0469 Q733.6569,1047.0469 734.3131,1046.7969 Q734.7038,1046.6406 735.1256,1046.2031 Q735.3913,1045.9375 735.5319,1045.8594 Q735.6881,1045.7813 735.8913,1045.7813 Q736.2194,1045.7813 736.4694,1046.0469 Q736.735,1046.2969 736.735,1046.6406 Q736.735,1046.9844 736.3913,1047.3906 Q735.8913,1047.9688 735.0944,1048.2969 Q734.0163,1048.75 732.7194,1048.75 Q731.2038,1048.75 730.0006,1048.125 Q729.0163,1047.625 728.3288,1046.5625 Q727.6413,1045.4844 727.6413,1044.2031 L727.6413,1043.0469 Q727.6413,1041.7188 728.2506,1040.5781 Q728.8756,1039.4219 729.9694,1038.8125 Q731.0631,1038.1875 732.2975,1038.1875 Q733.0319,1038.1875 733.6725,1038.3594 Q734.3288,1038.5156 734.8756,1038.875 Z " fill="#000000"/><text fill="#000000" font-family="sans-serif" font-size="14" lengthAdjust="spacing" textLength="27" x="752.61" y="1048.7285">tags</text><line style="stroke:#181818;stroke-width:0.5;" x1="679.36" x2="820.36" y1="1059" y2="1059"/><text fill="#000000" font-family="sans-serif" font-size="14" lengthAdjust="spacing" textLength="103" x="684.36" y="1077.5332">+id : bigint &#171;PK&#187;</text><text fill="#000000" font-family="sans-serif" font-size="14" lengthAdjust="spacing" textLength="131" x="684.36" y="1095.1426">user_id : bigint &#171;FK&#187;</text><line style="stroke:#181818;stroke-width:0.5;" x1="679.36" x2="820.36" y1="1102.2188" y2="1102.2188"/><text fill="#000000" font-family="sans-serif" font-size="14" lengthAdjust="spacing" textLength="121" x="684.36" y="1120.752">name : varchar(50)</text></g><!--class transaction_tag--><g id="elem_transaction_tag"><rect codeLine="120" fill="#F1F1F1" height="100.8281" id="transaction_tag" rx="2.5" ry="2.5" style="stroke:#181818;stroke-width:0.5;" width="185" x="544.36" y="1320"/><ellipse cx="584.11" cy="1336" fill="#ADD1B2" rx="11" ry="11" style="stroke:#181818;stroke-width:1.0;"/><path d="M586.8756,1331.875 Q587.0319,1331.6563 587.2194,1331.5469 Q587.4069,1331.4375 587.6256,1331.4375 Q588.0006,1331.4375 588.235,1331.7031 Q588.4694,1331.9531 588.4694,1332.5625 L588.4694,1334.0156 Q588.4694,1334.625 588.235,1334.8906 Q588.0006,1335.1563 587.6256,1335.1563 Q587.2819,1335.1563 587.0788,1334.9531 Q586.8756,1334.7656 586.7663,1334.25 Q586.7194,1333.8906 586.5319,1333.7031 Q586.2038,1333.3281 585.5944,1333.1094 Q584.985,1332.8906 584.36,1332.8906 Q583.5944,1332.8906 582.9538,1333.2188 Q582.3288,1333.5469 581.8288,1334.2969 Q581.3444,1335.0469 581.3444,1336.0781 L581.3444,1337.1719 Q581.3444,1338.4063 582.235,1339.2344 Q583.1256,1340.0469 584.7194,1340.0469 Q585.6569,1340.0469 586.3131,1339.7969 Q586.7038,1339.6406 587.1256,1339.2031 Q587.3913,1338.9375 587.5319,1338.8594 Q587.6881,1338.7813 587.8913,1338.7813 Q588.2194,1338.7813 588.4694,1339.0469 Q588.735,1339.2969 588.735,1339.6406 Q588.735,1339.9844 588.3913,1340.3906 Q587.8913,1340.9688 587.0944,1341.2969 Q586.0163,1341.75 584.7194,1341.75 Q583.2038,1341.75 582.0006,1341.125 Q581.0163,1340.625 580.3288,1339.5625 Q579.6413,1338.4844 579.6413,1337.2031 L579.6413,1336.0469 Q579.6413,1334.7188 580.2506,1333.5781 Q580.8756,1332.4219 581.9694,1331.8125 Q583.0631,1331.1875 584.2975,1331.1875 Q585.0319,1331.1875 585.6725,1331.3594 Q586.3288,1331.5156 586.8756,1331.875 Z " fill="#000000"/><text fill="#000000" font-family="sans-serif" font-size="14" lengthAdjust="spacing" textLength="98" x="603.61" y="1341.7285">transaction_tag</text><line style="stroke:#181818;stroke-width:0.5;" x1="545.36" x2="728.36" y1="1352" y2="1352"/><text fill="#000000" font-family="sans-serif" font-size="14" lengthAdjust="spacing" textLength="103" x="550.36" y="1370.5332">+id : bigint &#171;PK&#187;</text><text fill="#000000" font-family="sans-serif" font-size="14" lengthAdjust="spacing" textLength="173" x="550.36" y="1388.1426">transaction_id : bigint &#171;FK&#187;</text><text fill="#000000" font-family="sans-serif" font-size="14" lengthAdjust="spacing" textLength="123" x="550.36" y="1405.752">tag_id : bigint &#171;FK&#187;</text><line style="stroke:#181818;stroke-width:0.5;" x1="545.36" x2="728.36" y1="1412.8281" y2="1412.8281"/></g><!--class shared_funds--><g id="elem_shared_funds"><rect codeLine="127" fill="#F1F1F1" height="153.6563" id="shared_funds" rx="2.5" ry="2.5" style="stroke:#181818;stroke-width:0.5;" width="153" x="901.36" y="24.5"/><ellipse cx="931.66" cy="40.5" fill="#ADD1B2" rx="11" ry="11" style="stroke:#181818;stroke-width:1.0;"/><path d="M934.4256,36.375 Q934.5819,36.1563 934.7694,36.0469 Q934.9569,35.9375 935.1756,35.9375 Q935.5506,35.9375 935.785,36.2031 Q936.0194,36.4531 936.0194,37.0625 L936.0194,38.5156 Q936.0194,39.125 935.785,39.3906 Q935.5506,39.6563 935.1756,39.6563 Q934.8319,39.6563 934.6288,39.4531 Q934.4256,39.2656 934.3163,38.75 Q934.2694,38.3906 934.0819,38.2031 Q933.7538,37.8281 933.1444,37.6094 Q932.535,37.3906 931.91,37.3906 Q931.1444,37.3906 930.5038,37.7188 Q929.8788,38.0469 929.3788,38.7969 Q928.8944,39.5469 928.8944,40.5781 L928.8944,41.6719 Q928.8944,42.9063 929.785,43.7344 Q930.6756,44.5469 932.2694,44.5469 Q933.2069,44.5469 933.8631,44.2969 Q934.2538,44.1406 934.6756,43.7031 Q934.9413,43.4375 935.0819,43.3594 Q935.2381,43.2813 935.4413,43.2813 Q935.7694,43.2813 936.0194,43.5469 Q936.285,43.7969 936.285,44.1406 Q936.285,44.4844 935.9413,44.8906 Q935.4413,45.4688 934.6444,45.7969 Q933.5663,46.25 932.2694,46.25 Q930.7538,46.25 929.5506,45.625 Q928.5663,45.125 927.8788,44.0625 Q927.1913,42.9844 927.1913,41.7031 L927.1913,40.5469 Q927.1913,39.2188 927.8006,38.0781 Q928.4256,36.9219 929.5194,36.3125 Q930.6131,35.6875 931.8475,35.6875 Q932.5819,35.6875 933.2225,35.8594 Q933.8788,36.0156 934.4256,36.375 Z " fill="#000000"/><text fill="#000000" font-family="sans-serif" font-size="14" lengthAdjust="spacing" textLength="87" x="949.06" y="46.2285">shared_funds</text><line style="stroke:#181818;stroke-width:0.5;" x1="902.36" x2="1053.36" y1="56.5" y2="56.5"/><text fill="#000000" font-family="sans-serif" font-size="14" lengthAdjust="spacing" textLength="103" x="907.36" y="75.0332">+id : bigint &#171;PK&#187;</text><text fill="#000000" font-family="sans-serif" font-size="14" lengthAdjust="spacing" textLength="103" x="907.36" y="92.6426">description : text</text><text fill="#000000" font-family="sans-serif" font-size="14" lengthAdjust="spacing" textLength="134" x="907.36" y="110.252">created_at : datetime</text><text fill="#000000" font-family="sans-serif" font-size="14" lengthAdjust="spacing" textLength="138" x="907.36" y="127.8613">updated_at : datetime</text><line style="stroke:#181818;stroke-width:0.5;" x1="902.36" x2="1053.36" y1="134.9375" y2="134.9375"/><text fill="#000000" font-family="sans-serif" font-size="14" lengthAdjust="spacing" textLength="129" x="907.36" y="153.4707">name : varchar(150)</text><text fill="#000000" font-family="sans-serif" font-size="14" lengthAdjust="spacing" textLength="141" x="907.36" y="171.0801">currency : varchar(10)</text></g><!--class shared_fund_members--><g id="elem_shared_fund_members"><rect codeLine="136" fill="#F1F1F1" height="136.0469" id="shared_fund_members" rx="2.5" ry="2.5" style="stroke:#181818;stroke-width:0.5;" width="235" x="860.36" y="326.5"/><ellipse cx="901.01" cy="342.5" fill="#ADD1B2" rx="11" ry="11" style="stroke:#181818;stroke-width:1.0;"/><path d="M903.7756,338.375 Q903.9319,338.1563 904.1194,338.0469 Q904.3069,337.9375 904.5256,337.9375 Q904.9006,337.9375 905.135,338.2031 Q905.3694,338.4531 905.3694,339.0625 L905.3694,340.5156 Q905.3694,341.125 905.135,341.3906 Q904.9006,341.6563 904.5256,341.6563 Q904.1819,341.6563 903.9788,341.4531 Q903.7756,341.2656 903.6663,340.75 Q903.6194,340.3906 903.4319,340.2031 Q903.1038,339.8281 902.4944,339.6094 Q901.885,339.3906 901.26,339.3906 Q900.4944,339.3906 899.8538,339.7188 Q899.2288,340.0469 898.7288,340.7969 Q898.2444,341.5469 898.2444,342.5781 L898.2444,343.6719 Q898.2444,344.9063 899.135,345.7344 Q900.0256,346.5469 901.6194,346.5469 Q902.5569,346.5469 903.2131,346.2969 Q903.6038,346.1406 904.0256,345.7031 Q904.2913,345.4375 904.4319,345.3594 Q904.5881,345.2813 904.7913,345.2813 Q905.1194,345.2813 905.3694,345.5469 Q905.635,345.7969 905.635,346.1406 Q905.635,346.4844 905.2913,346.8906 Q904.7913,347.4688 903.9944,347.7969 Q902.9163,348.25 901.6194,348.25 Q900.1038,348.25 898.9006,347.625 Q897.9163,347.125 897.2288,346.0625 Q896.5413,344.9844 896.5413,343.7031 L896.5413,342.5469 Q896.5413,341.2188 897.1506,340.0781 Q897.7756,338.9219 898.8694,338.3125 Q899.9631,337.6875 901.1975,337.6875 Q901.9319,337.6875 902.5725,337.8594 Q903.2288,338.0156 903.7756,338.375 Z " fill="#000000"/><text fill="#000000" font-family="sans-serif" font-size="14" lengthAdjust="spacing" textLength="146" x="920.71" y="348.2285">shared_fund_members</text><line style="stroke:#181818;stroke-width:0.5;" x1="861.36" x2="1094.36" y1="358.5" y2="358.5"/><text fill="#000000" font-family="sans-serif" font-size="14" lengthAdjust="spacing" textLength="103" x="866.36" y="377.0332">+id : bigint &#171;PK&#187;</text><text fill="#000000" font-family="sans-serif" font-size="14" lengthAdjust="spacing" textLength="183" x="866.36" y="394.6426">shared_fund_id : bigint &#171;FK&#187;</text><text fill="#000000" font-family="sans-serif" font-size="14" lengthAdjust="spacing" textLength="131" x="866.36" y="412.252">user_id : bigint &#171;FK&#187;</text><line style="stroke:#181818;stroke-width:0.5;" x1="861.36" x2="1094.36" y1="419.3281" y2="419.3281"/><text fill="#000000" font-family="sans-serif" font-size="14" lengthAdjust="spacing" textLength="110" x="866.36" y="437.8613">role : varchar(30)</text><text fill="#000000" font-family="sans-serif" font-size="14" lengthAdjust="spacing" textLength="223" x="866.36" y="455.4707">contribution_default : decimal(14,2)</text></g><g id="elem_GMN29"><path d="M947.36,684.5 L947.36,743.5547 L1300.36,743.5547 L1300.36,694.5 L1290.36,684.5 L947.36,684.5 " fill="#FEFFDD" style="stroke:#181818;stroke-width:0.5;"/><path d="M1290.36,684.5 L1290.36,694.5 L1300.36,694.5 L1290.36,684.5 " fill="#FEFFDD" style="stroke:#181818;stroke-width:1.0;"/><text fill="#000000" font-family="sans-serif" font-size="13" lengthAdjust="spacing" textLength="251" x="953.36" y="702.9951">transactions guarda todos los movimientos:</text><text fill="#000000" font-family="sans-serif" font-size="13" lengthAdjust="spacing" textLength="332" x="953.36" y="719.3467">- Si origin = CREDIT_CARD -&gt; credit_card_id debe existir</text><text fill="#000000" font-family="sans-serif" font-size="13" lengthAdjust="spacing" textLength="295" x="953.36" y="735.6982">- related_transaction_id enlaza pagos con compras</text></g><!--link users to wallets--><g id="link_users_wallets"><path codeLine="145" d="M458.22,158.21 C409.65,185.85 351.55,220.8 301.86,256 C273.52,276.08 244,299.84 217.95,321.9 " fill="none" id="users-wallets" style="stroke:#181818;stroke-width:1.0;"/><text fill="#000000" font-family="sans-serif" font-size="13" lengthAdjust="spacing" textLength="7" x="443.4253" y="159.2998">1</text><text fill="#000000" font-family="sans-serif" font-size="13" lengthAdjust="spacing" textLength="22" x="225.778" y="312.489">0..n</text></g><!--link users to buckets--><g id="link_users_buckets"><path codeLine="146" d="M507.43,196.18 C486.76,232.4 463.29,273.55 443.15,308.86 " fill="none" id="users-buckets" style="stroke:#181818;stroke-width:1.0;"/><text fill="#000000" font-family="sans-serif" font-size="13" lengthAdjust="spacing" textLength="7" x="496.2492" y="217.2332">1</text><text fill="#000000" font-family="sans-serif" font-size="13" lengthAdjust="spacing" textLength="22" x="424.4711" y="298.0191">0..n</text></g><!--link buckets to bucket_defaults--><g id="link_buckets_bucket_defaults"><path codeLine="147" d="M333.8,480.17 C298.62,528.94 254.77,589.74 220.7,636.98 " fill="none" id="buckets-bucket_defaults" style="stroke:#181818;stroke-width:1.0;"/><text fill="#000000" font-family="sans-serif" font-size="13" lengthAdjust="spacing" textLength="7" x="321.2519" y="501.7186">1</text><text fill="#000000" font-family="sans-serif" font-size="13" lengthAdjust="spacing" textLength="22" x="203.0155" y="626.1402">0..n</text></g><!--link buckets to subcategories--><g id="link_buckets_subcategories"><path codeLine="148" d="M385,480.17 C379.31,528.94 372.23,589.74 366.72,636.98 " fill="none" id="buckets-subcategories" style="stroke:#181818;stroke-width:1.0;"/><text fill="#000000" font-family="sans-serif" font-size="13" lengthAdjust="spacing" textLength="7" x="376.8519" y="501.7186">1</text><text fill="#000000" font-family="sans-serif" font-size="13" lengthAdjust="spacing" textLength="22" x="344.5093" y="626.1402">0..n</text></g><!--link users to credit_cards--><g id="link_users_credit_cards"><path codeLine="149" d="M612.05,196.18 C622.44,215.2 633.58,235.58 644.61,255.77 " fill="none" id="users-credit_cards" style="stroke:#181818;stroke-width:1.0;"/><text fill="#000000" font-family="sans-serif" font-size="13" lengthAdjust="spacing" textLength="7" x="608.5522" y="217.2332">1</text><text fill="#000000" font-family="sans-serif" font-size="13" lengthAdjust="spacing" textLength="22" x="617.8932" y="245.2526">0..n</text></g><!--link credit_cards to card_cycles--><g id="link_credit_cards_card_cycles"><path codeLine="150" d="M754.17,533.37 C759.08,553.12 764.11,573.31 768.93,592.68 " fill="none" id="credit_cards-card_cycles" style="stroke:#181818;stroke-width:1.0;"/><text fill="#000000" font-family="sans-serif" font-size="13" lengthAdjust="spacing" textLength="7" x="748.7586" y="554.4492">1</text><text fill="#000000" font-family="sans-serif" font-size="13" lengthAdjust="spacing" textLength="22" x="744.4358" y="582.3144">0..n</text></g><!--link users to transactions--><g id="link_users_transactions"><path codeLine="151" d="M557.39,196.33 C551.46,357.01 539.24,687.49 531.59,894.63 " fill="none" id="users-transactions" style="stroke:#181818;stroke-width:1.0;"/><text fill="#000000" font-family="sans-serif" font-size="13" lengthAdjust="spacing" textLength="7" x="549.8781" y="217.3942">1</text><text fill="#000000" font-family="sans-serif" font-size="13" lengthAdjust="spacing" textLength="22" x="509.4099" y="884.0809">0..n</text></g><!--link wallets to transactions--><g id="link_wallets_transactions"><path codeLine="152" d="M89.87,489.02 C48.94,583.01 6,728.8 69.86,835 C142.34,955.52 297.45,1019.1 406.34,1050.22 " fill="none" id="wallets-transactions" style="stroke:#181818;stroke-width:1.0;"/><text fill="#000000" font-family="sans-serif" font-size="13" lengthAdjust="spacing" textLength="7" x="78.9278" y="510.3825">1</text><text fill="#000000" font-family="sans-serif" font-size="13" lengthAdjust="spacing" textLength="22" x="376.4474" y="1045.5769">0..n</text></g><!--link buckets to transactions--><g id="link_buckets_transactions"><path codeLine="153" d="M423.14,480.34 C433.91,514.98 445.58,555.62 453.86,593 C475.77,691.88 492.69,803.68 504.5,894.84 " fill="none" id="buckets-transactions" style="stroke:#181818;stroke-width:1.0;"/><text fill="#000000" font-family="sans-serif" font-size="13" lengthAdjust="spacing" textLength="7" x="418.2695" y="501.9032">1</text><text fill="#000000" font-family="sans-serif" font-size="13" lengthAdjust="spacing" textLength="22" x="481.177" y="884.2997">0..n</text></g><!--link subcategories to transactions--><g id="link_subcategories_transactions"><path codeLine="154" d="M393.08,791.22 C407.14,821.67 424,858.16 440.88,894.69 " fill="none" id="subcategories-transactions" style="stroke:#181818;stroke-width:1.0;"/><text fill="#000000" font-family="sans-serif" font-size="13" lengthAdjust="spacing" textLength="7" x="388.8059" y="812.0686">1</text><text fill="#000000" font-family="sans-serif" font-size="13" lengthAdjust="spacing" textLength="22" x="414.873" y="884.1434">0..n</text></g><!--link credit_cards to transactions--><g id="link_credit_cards_transactions"><path codeLine="155" d="M680.4,533.31 C650.58,637.47 609.36,781.41 576.85,894.95 " fill="none" id="credit_cards-transactions" style="stroke:#181818;stroke-width:1.0;"/><text fill="#000000" font-family="sans-serif" font-size="13" lengthAdjust="spacing" textLength="7" x="671.1849" y="554.3861">1</text><text fill="#000000" font-family="sans-serif" font-size="13" lengthAdjust="spacing" textLength="22" x="556.5793" y="884.4144">0..n</text></g><!--link transactions to transaction_tag--><g id="link_transactions_transaction_tag"><path codeLine="156" d="M594.84,1260.31 C603.2,1282.03 611.11,1302.59 617.77,1319.89 " fill="none" id="transactions-transaction_tag" style="stroke:#181818;stroke-width:1.0;"/><text fill="#000000" font-family="sans-serif" font-size="13" lengthAdjust="spacing" textLength="7" x="590.4369" y="1281.2661">1</text><text fill="#000000" font-family="sans-serif" font-size="13" lengthAdjust="spacing" textLength="22" x="591.5386" y="1309.1799">0..n</text></g><!--link tags to transaction_tag--><g id="link_tags_transaction_tag"><path codeLine="157" d="M730.57,1128.19 C709.83,1181.6 677.05,1266.01 656.27,1319.52 " fill="none" id="tags-transaction_tag" style="stroke:#181818;stroke-width:1.0;"/><text fill="#000000" font-family="sans-serif" font-size="13" lengthAdjust="spacing" textLength="7" x="720.65" y="1149.2383">1</text><text fill="#000000" font-family="sans-serif" font-size="13" lengthAdjust="spacing" textLength="22" x="635.4001" y="1309.1248">0..n</text></g><!--link shared_funds to shared_fund_members--><g id="link_shared_funds_shared_fund_members"><path codeLine="158" d="M977.86,178.58 C977.86,224.38 977.86,282.18 977.86,326.29 " fill="none" id="shared_funds-shared_fund_members" style="stroke:#181818;stroke-width:1.0;"/><text fill="#000000" font-family="sans-serif" font-size="13" lengthAdjust="spacing" textLength="7" x="970.5483" y="199.6835">1</text><text fill="#000000" font-family="sans-serif" font-size="13" lengthAdjust="spacing" textLength="22" x="954.6569" y="315.4663">0..n</text></g><!--link users to shared_fund_members--><g id="link_users_shared_fund_members"><path codeLine="159" d="M663.46,149.14 C718.98,176.59 787.36,214.11 842.86,256 C870.1,276.56 897.06,302.56 919.65,326.41 " fill="none" id="users-shared_fund_members" style="stroke:#181818;stroke-width:1.0;"/><text fill="#000000" font-family="sans-serif" font-size="13" lengthAdjust="spacing" textLength="7" x="671.2517" y="149.5637">1</text><text fill="#000000" font-family="sans-serif" font-size="13" lengthAdjust="spacing" textLength="22" x="890.0802" y="315.5994">0..n</text></g><!--link GMN29 to transactions--><g id="link_GMN29_transactions"><path d="M1086.18,743.66 C1048.51,770.97 988,811.33 929.86,835 C816.41,881.2 763.75,828.53 660.86,895 C654.91,898.85 649.12,903.05 643.5,907.54 " fill="none" id="GMN29-transactions" style="stroke:#181818;stroke-width:1.0;stroke-dasharray:7.0,7.0;"/></g><!--SRC=[jLVDRjGm4BxdAQnUAAA55YW7L2f10GbnGIs8epLnPdTD7JkodT85yK0y1o_6s4dQ97Mo_O6LgardFcTcFi_VkZEfAx1GCg70kTVUMvdN7Zy8eq_b3sHxMVQ0VN5eNHOHh0xFx6V6wFE8oOAzPBbSIktPuU6dZqT7KR6x6xy2LaE9X3a7ArPWj_VtzXv67POWLLznq2egilBTs8AlmArwWAS71mrWKIl5nw_jJYiZG0qDDWfX4JmM73mf2thqiiJ6owf8Q7w5mB-2KkZP4oPgr1uSsyO52Y_FpGuh_lpEfQU77BGm3rjwliSJ6maApF2XxdsdcsBChwk-_5aNM6qjQh5En9o38j_2eGA5B45jxp_VUNeFFjxKueoYQsFDc__-Hwm5Ec5bvQNHfFPuuQEOihL8KN3tMCZI0cerYebtqasnjV29w73HP0loXJLbwq7KG6bgxPCNeut7LDgdWuoXdDQv8C7IM8bT8AulkryOjxoaEzt6PmlQWGZleYe3xSdfqfnZINNdkkBoVT0zigufqYdjF1bNlAwd84H08JqNG4ri0c9HHIPw4Kr19ygUxfMG_KJfYY6OzHTyujnCvirqaech3dVOJskBD3U4L1X3CKOXwAWeqGEXWCJVdD5tpvFZo6qCiilq7jt_fHTHVpzBoMVeQbrIifHfgdEfbDHBNa0uxgLUapFj-5k7dET5ZGajQ5s3ufOuuPNel_l5phFcrQNHVgNMinY8NMbqHtUx3sATYRLGbuqdvbyZsNGRDoYK2gqq1NSUhEzdMYl7E0ykfGJpiMNmcJI_0etJj-5yAAj05dDlY_hn8Ge2BJeAZR9Y6QlXfXEuwOQmxEZqzFWFiphiIMJYMZ_bP6UJcPiqArYcLCsK8lj4nQBMbwNheeX7qIRhKnlVr1IQhSxR9lerTtc9PNw3JRX_P8ApkTkpHYLtFghnkAY7gsXtbMiv5aa_2OCcpCkLh5pMBEzR-rkqeREjlSUFzLQtiIPrxOQNTPjUIdkvAqsW1ej8qag_WMU3RZx2NNMMv7lwwq7MBU8paBI_0yXmYve1phWzm0rMc4bSgCOiLluyP50_8zglvsgIj1GkYpkeDnKpYw7xepRWsBAcY86mXN7quoikRJJrgBiQzxBvBSXEPRUjl6B79-_UVlZCZr-Vl6MxH-C9K62E32-ayzAsXoSs9TGAVW1rtoNPf7AWlxAouB8m4OBxsLy0]--></g></svg>